<?xml version="1.0" encoding="UTF-8" standalone="no"?>
<!-- Created with Inkscape (http://www.inkscape.org/) -->
<svg xmlns:dc="http://purl.org/dc/elements/1.1/" xmlns:cc="http://creativecommons.org/ns#" xmlns:rdf="http://www.w3.org/1999/02/22-rdf-syntax-ns#" xmlns:svg="http://www.w3.org/2000/svg" xmlns="http://www.w3.org/2000/svg" xmlns:sodipodi="http://sodipodi.sourceforge.net/DTD/sodipodi-0.dtd" xmlns:inkscape="http://www.inkscape.org/namespaces/inkscape" version="1.1" id="svg3918" xml:space="preserve" width="434.34668" height="434.35999" viewBox="0 0 434.34668 434.35999" sodipodi:docname="NW_Logo_N_Logomark_RGB_Screen.svg"><metadata id="metadata3924"><rdf:RDF><cc:Work rdf:about=""><dc:format>image/svg+xml</dc:format><dc:type rdf:resource="http://purl.org/dc/dcmitype/StillImage"/><dc:title></dc:title></cc:Work></rdf:RDF></metadata><defs id="defs3922"/><g id="g3926" transform="matrix(1.3333333,0,0,-1.3333333,0,434.36)"><g id="g3928" transform="scale(0.1)"><path d="m 1079.42,3251.22 c -11.12,4.16 -22.96,6.45 -35.06,6.45 H 71.4883 C 32.0078,3257.67 0,3225.66 0,3186.18 V 2171.76 l 1079.42,1079.46" style="fill:#30b243;fill-opacity:1;fill-rule:nonzero;stroke:none" id="path3930"/><path d="M 20.9336,20.9414 C 33.8711,8 51.7461,0 71.4922,0 L 1014.39,0.0195313 c 39.48,0 71.49,31.9999687 71.49,71.4921687 L 1085.89,1085.86 20.9336,20.9414" style="fill:#30b243;fill-opacity:1;fill-rule:nonzero;stroke:none" id="path3932"/><path d="M 2171.77,2171.76 V 9.12891 c 2.12,-0.96875 4.27,-1.85938 6.45,-2.66797 L 3257.64,1085.87 2171.77,2171.76" style="fill:#1f6631;fill-opacity:1;fill-rule:nonzero;stroke:none" id="path3934"/><path d="m 1085.89,1085.86 v 2162.56 c -2.14,0.97 -4.27,1.98 -6.47,2.8 L 0,2171.77 V 71.4883 C 0,51.75 8,33.8789 20.9336,20.9414 L 1085.89,1085.86" style="fill:#80cc28;fill-opacity:1;fill-rule:nonzero;stroke:none" id="path3936"/><path d="m 3257.64,1085.87 v 2100.31 c 0,39.48 -32.01,71.49 -71.49,71.49 h -942.9 c -39.45,0 -71.42,-31.95 -71.48,-71.38 V 2171.76 L 3257.64,1085.87" style="fill:#80cc28;fill-opacity:1;fill-rule:nonzero;stroke:none" id="path3938"/><path d="M 3257.64,1085.87 2178.22,6.46094 c 11.12,-4.16016 22.96,-6.4492212 35.07,-6.4492212 l 972.86,0.0078125 c 39.48,0 71.49,31.9999687 71.49,71.4921687 V 1085.87" style="fill:#80cc28;fill-opacity:1;fill-rule:nonzero;stroke:none" id="path3940"/><path d="m 1086.02,1085.9 h -0.13 v -0.02 l 0.13,0.02" style="fill:#d2d2d3;fill-opacity:1;fill-rule:nonzero;stroke:none" id="path3942"/><path d="m 2171.76,2171.8 h -0.01 v -0.02 l 0.01,0.02" style="fill:#d2d2d3;fill-opacity:1;fill-rule:nonzero;stroke:none" id="path3944"/><path d="m 1115.24,3228.31 c -8.55,8.55 -18.55,15.21 -29.35,20.11 V 1085.86 L 2142.4,29.3711 c 8.56,-8.5625 18.56,-15.3203 29.37,-20.24219 V 2171.76 L 1115.24,3228.31" style="fill:#30b243;fill-opacity:1;fill-rule:nonzero;stroke:none" id="path3946"/></g></g></svg>
