<?xml version="1.0" encoding="UTF-8"?>
<svg xmlns="http://www.w3.org/2000/svg" xmlns:xlink="http://www.w3.org/1999/xlink" width="1250px" height="259px" viewBox="0 0 1248 259" version="1.1">
<g id="surface1">
<path style=" stroke:none;fill-rule:evenodd;fill:rgb(0%,0%,0%);fill-opacity:1;" d="M 182.277344 0.519531 C 183.640625 0.519531 184.800781 1.394531 185.226562 2.617188 C 186.421875 2.570312 187.628906 2.953125 188.605469 3.761719 L 188.964844 4.085938 L 212.253906 27.382812 L 212.253906 40.460938 L 225.328125 40.453125 L 248.238281 63.371094 C 249.269531 64.398438 249.757812 65.765625 249.710938 67.113281 C 251.132812 67.398438 252.203125 68.65625 252.203125 70.164062 L 252.203125 183.296875 C 252.203125 184.761719 251.195312 185.992188 249.835938 186.328125 C 249.828125 187.601562 249.335938 188.875 248.359375 189.851562 L 225.398438 212.808594 L 212.253906 212.804688 L 212.253906 225.957031 L 189.085938 249.132812 C 188.132812 250.089844 186.886719 250.578125 185.636719 250.609375 C 185.226562 251.847656 184.054688 252.746094 182.675781 252.746094 L 69.460938 252.746094 C 68.097656 252.746094 66.9375 251.871094 66.511719 250.648438 C 65.339844 250.679688 64.15625 250.296875 63.199219 249.503906 L 62.839844 249.179688 L 39.949219 226.285156 L 39.953125 212.804688 L 26.476562 212.808594 L 3.566406 189.894531 C 2.5625 188.890625 2.070312 187.570312 2.089844 186.257812 C 0.875 185.832031 0 184.671875 0 183.308594 L 0 70.160156 C 0 68.839844 0.816406 67.714844 1.976562 67.257812 C 1.898438 65.878906 2.390625 64.472656 3.445312 63.414062 L 26.375 40.472656 L 32.191406 40.472656 L 32.191406 40.460938 L 39.949219 40.460938 L 39.949219 26.902344 L 62.71875 4.132812 C 63.652344 3.199219 64.867188 2.707031 66.089844 2.660156 C 66.5 1.417969 67.671875 0.519531 69.054688 0.519531 Z M 175.273438 24.957031 L 76.453125 24.957031 L 60.953125 40.460938 L 174.441406 40.460938 L 174.441406 64.898438 L 36.511719 64.898438 L 24.433594 76.980469 L 24.433594 176.203125 L 39.949219 191.722656 L 39.953125 79.074219 L 64.386719 79.074219 L 64.382812 141.042969 L 157.953125 141.042969 L 157.953125 165.480469 L 64.382812 165.480469 L 64.386719 215.941406 L 64.164062 215.9375 L 76.527344 228.304688 L 175.351562 228.304688 L 190.851562 212.804688 L 76.796875 212.804688 L 76.796875 188.367188 L 215.285156 188.363281 L 227.765625 175.882812 L 227.765625 77.457031 L 212.25 61.941406 L 212.253906 175.957031 L 187.816406 175.957031 L 187.816406 113.984375 L 94.25 113.984375 L 94.25 89.546875 L 187.816406 89.542969 L 187.816406 37.496094 Z M 175.273438 24.957031 "/>
<path style=" stroke:none;fill-rule:nonzero;fill:rgb(0%,0%,0%);fill-opacity:1;" d="M 395.273438 208.488281 C 411.75 208.488281 425.152344 204.316406 435.480469 195.964844 C 445.804688 187.617188 451.078125 176.410156 451.078125 162.125 C 451.078125 153.335938 448.660156 145.644531 445.363281 140.371094 C 442.507812 135.097656 435.480469 129.605469 430.863281 126.75 C 428.667969 125.210938 425.371094 123.671875 421.199219 122.136719 C 417.023438 120.378906 413.730469 119.058594 411.3125 118.398438 L 400.765625 114.882812 C 389.34375 111.367188 381.652344 108.070312 377.476562 105.214844 C 373.523438 102.140625 371.546875 98.183594 371.546875 93.351562 C 371.546875 84.339844 379.234375 77.96875 391.757812 77.96875 C 405.160156 77.96875 415.046875 84.5625 421.199219 97.746094 L 446.683594 83.023438 C 436.136719 61.269531 416.585938 48.523438 391.757812 48.523438 C 377.917969 48.523438 365.835938 52.699219 355.949219 61.050781 C 346.0625 69.179688 341.226562 80.386719 341.226562 94.230469 C 341.226562 108.292969 346.28125 118.839844 355.726562 125.871094 C 365.394531 132.683594 373.742188 135.976562 387.585938 140.152344 C 400.105469 143.667969 408.675781 146.964844 413.507812 150.042969 C 418.34375 152.898438 420.757812 157.074219 420.757812 162.566406 C 420.757812 172.015625 413.070312 178.824219 396.152344 178.824219 C 378.578125 178.824219 366.714844 170.914062 360.78125 155.316406 L 334.855469 170.476562 C 343.425781 193.988281 364.734375 208.488281 395.273438 208.488281 Z M 521.820312 208.488281 C 543.132812 208.488281 561.804688 197.285156 571.472656 179.925781 L 546.867188 165.863281 C 542.472656 174.871094 533.023438 180.363281 521.601562 180.363281 C 513.03125 180.363281 506.003906 177.507812 500.507812 172.015625 C 495.015625 166.300781 492.160156 159.050781 492.160156 150.480469 C 492.160156 132.902344 504.683594 120.378906 521.601562 120.378906 C 532.804688 120.378906 542.253906 126.089844 546.644531 135.097656 L 571.03125 120.816406 C 562.023438 103.457031 543.132812 92.472656 521.820312 92.472656 C 505.34375 92.472656 491.5 97.964844 480.296875 109.171875 C 469.3125 120.378906 463.820312 134 463.820312 150.480469 C 463.820312 166.960938 469.3125 180.582031 480.296875 191.789062 C 491.5 202.996094 505.34375 208.488281 521.820312 208.488281 Z M 615.632812 205.414062 L 615.632812 152.898438 C 615.632812 142.351562 618.925781 134.878906 625.738281 130.265625 C 632.546875 125.652344 640.457031 123.894531 649.027344 124.992188 L 649.027344 93.351562 C 634.085938 93.351562 620.90625 100.382812 615.632812 114.445312 L 615.632812 95.546875 L 587.289062 95.546875 L 587.289062 205.414062 Z M 679.5625 82.363281 C 689.230469 82.363281 697.140625 74.453125 697.140625 65.003906 C 697.140625 55.554688 689.230469 47.425781 679.5625 47.425781 C 670.117188 47.425781 662.207031 55.554688 662.207031 65.003906 C 662.207031 74.453125 670.117188 82.363281 679.5625 82.363281 Z M 693.84375 205.414062 L 693.84375 95.546875 L 665.503906 95.546875 L 665.503906 205.414062 Z M 783.699219 208.488281 C 798.421875 208.488281 811.164062 202.996094 821.488281 191.789062 C 832.035156 180.582031 837.308594 166.742188 837.308594 150.480469 C 837.308594 134.21875 832.035156 120.597656 821.488281 109.390625 C 811.164062 98.183594 798.421875 92.472656 783.699219 92.472656 C 768.320312 92.472656 756.457031 97.746094 748.109375 108.511719 L 748.109375 51.601562 L 719.769531 51.601562 L 719.769531 205.414062 L 748.109375 205.414062 L 748.109375 192.449219 C 756.457031 203.214844 768.320312 208.488281 783.699219 208.488281 Z M 778.429688 181.460938 C 769.640625 181.460938 762.390625 178.605469 756.679688 172.894531 C 750.964844 166.960938 748.109375 159.488281 748.109375 150.480469 C 748.109375 141.472656 750.964844 134 756.679688 128.289062 C 762.390625 122.355469 769.640625 119.5 778.429688 119.5 C 787.214844 119.5 794.464844 122.355469 800.179688 128.289062 C 806.109375 134 808.964844 141.472656 808.964844 150.480469 C 808.964844 159.488281 806.109375 166.960938 800.179688 172.894531 C 794.464844 178.605469 787.214844 181.460938 778.429688 181.460938 Z M 911.785156 208.488281 C 932.875 208.488281 948.914062 200.578125 959.679688 184.976562 L 936.832031 171.792969 C 931.339844 179.046875 922.988281 182.78125 912.226562 182.78125 C 895.308594 182.78125 884.980469 175.96875 881.246094 162.125 L 964.074219 162.125 C 964.734375 157.953125 965.171875 154.214844 965.171875 150.480469 C 965.171875 134 959.898438 120.378906 949.355469 109.171875 C 939.027344 97.964844 925.625 92.472656 909.589844 92.472656 C 892.671875 92.472656 878.609375 97.964844 867.84375 109.171875 C 857.082031 120.15625 851.589844 134 851.589844 150.480469 C 851.589844 167.179688 857.082031 181.023438 868.066406 192.011719 C 879.050781 202.996094 893.550781 208.488281 911.785156 208.488281 Z M 936.832031 140.152344 L 880.808594 140.152344 C 884.101562 126.089844 894.429688 117.960938 909.589844 117.960938 C 922.550781 117.960938 933.535156 125.210938 936.832031 140.152344 Z M 1043.605469 208.488281 C 1060.960938 208.488281 1075.019531 203.65625 1086.007812 193.988281 C 1096.992188 184.320312 1102.484375 171.355469 1102.484375 155.09375 L 1102.484375 51.601562 L 1072.164062 51.601562 L 1072.164062 152.679688 C 1072.164062 168.71875 1063.15625 178.824219 1043.605469 178.824219 C 1024.050781 178.824219 1015.042969 168.71875 1015.042969 152.679688 L 1015.042969 51.601562 L 984.945312 51.601562 L 984.945312 155.09375 C 984.945312 171.355469 990.4375 184.320312 1001.421875 193.988281 C 1012.40625 203.65625 1026.46875 208.488281 1043.605469 208.488281 Z M 1156.75 249.359375 L 1156.75 192.449219 C 1165.097656 203.214844 1176.960938 208.488281 1192.339844 208.488281 C 1207.058594 208.488281 1219.804688 202.996094 1230.128906 191.789062 C 1240.675781 180.582031 1245.945312 166.742188 1245.945312 150.480469 C 1245.945312 134.21875 1240.675781 120.597656 1230.128906 109.390625 C 1219.804688 98.183594 1207.058594 92.472656 1192.339844 92.472656 C 1176.960938 92.472656 1165.097656 97.746094 1156.75 108.511719 L 1156.75 95.546875 L 1128.410156 95.546875 L 1128.410156 249.359375 Z M 1187.066406 181.460938 C 1178.28125 181.460938 1171.03125 178.605469 1165.316406 172.894531 C 1159.605469 166.960938 1156.75 159.488281 1156.75 150.480469 C 1156.75 141.472656 1159.605469 134 1165.316406 128.289062 C 1171.03125 122.355469 1178.28125 119.5 1187.066406 119.5 C 1195.855469 119.5 1203.105469 122.355469 1208.816406 128.289062 C 1214.75 134 1217.605469 141.472656 1217.605469 150.480469 C 1217.605469 159.488281 1214.75 166.960938 1208.816406 172.894531 C 1203.105469 178.605469 1195.855469 181.460938 1187.066406 181.460938 Z M 1187.066406 181.460938 "/>
</g>
</svg>
