<svg width="125" height="25" viewBox="0 0 125 25" fill="none" xmlns="http://www.w3.org/2000/svg">
<g clip-path="url(#clip0_4200_36700)">
<path d="M12.7326 25C11.2142 25 9.69584 25.0008 8.1766 24.9992C7.95204 24.9992 7.72748 24.9915 7.50378 24.9754C7.39928 24.9678 7.287 24.9508 7.19717 24.9041C7.0158 24.81 6.83356 24.7591 6.6254 24.7574C6.53817 24.7574 6.43366 24.692 6.3663 24.6267C5.62956 23.9149 4.89542 23.1997 4.16906 22.476C4.09651 22.403 4.05591 22.2732 4.05073 22.1672C4.03518 21.86 4.04209 21.5521 4.04641 21.2441C4.049 21.0948 4.00236 21.0252 3.83221 21.0329C3.54892 21.0464 3.26477 21.0329 2.98148 21.0371C2.79405 21.0396 2.63945 20.9828 2.50472 20.8496C1.82067 20.176 1.1323 19.5057 0.444803 18.8346C0.292793 18.6862 0.186558 18.5241 0.215924 18.2959C0.225424 18.2238 0.172739 18.1449 0.150283 18.0685C0.0993249 17.8929 0.00690956 17.7173 0.00604587 17.5417C-0.00172739 14.2337 0.00172739 10.9249 0 7.61615C0 7.3735 0.0388663 7.14613 0.169284 6.93318C0.208151 6.86955 0.221106 6.77622 0.211605 6.69987C0.183103 6.4691 0.280701 6.30027 0.440484 6.14501C0.965611 5.63427 1.48469 5.11844 2.00636 4.60515C2.17306 4.44056 2.34493 4.28106 2.50903 4.11392C2.62391 3.99684 2.76037 3.94933 2.92188 3.95018C3.22936 3.95188 3.53683 3.93915 3.84344 3.95358C4.00064 3.96121 4.0395 3.90013 4.0395 3.76693C4.03777 3.45386 4.04641 3.13995 4.0395 2.82689C4.03605 2.68266 4.07837 2.57067 4.18201 2.46886C4.88074 1.78505 5.57688 1.09784 6.27474 0.412326C6.41294 0.276581 6.56495 0.185801 6.77914 0.212102C6.86292 0.222283 6.95534 0.161197 7.0443 0.136593C7.20581 0.0916279 7.36905 0.0110293 7.53142 0.0101809C9.58183 0 11.6322 0.00169681 13.6827 0C15.0179 0 16.3532 0.00169681 17.6893 0C17.9415 0 18.1851 0.0110293 18.3907 0.183256C18.4218 0.209556 18.4822 0.224828 18.5211 0.214647C18.8173 0.137442 19.0194 0.28761 19.2094 0.475108C19.6922 0.953609 20.1751 1.43126 20.6579 1.90892C20.8539 2.10235 21.0474 2.29749 21.2486 2.48583C21.3799 2.6097 21.449 2.74714 21.4395 2.93209C21.4274 3.19255 21.4447 3.45471 21.4326 3.71517C21.4248 3.88485 21.468 3.95442 21.658 3.94255C21.9404 3.92558 22.2255 3.94509 22.5088 3.93746C22.6677 3.93321 22.792 3.97988 22.9035 4.09187C23.4744 4.66369 24.0479 5.23297 24.6214 5.80225C24.7172 5.89727 24.8088 5.99654 24.9116 6.08392C25.1016 6.24512 25.1966 6.4411 25.2061 6.69054C25.2095 6.78725 25.2821 6.88058 25.314 6.97899C25.365 7.13595 25.4488 7.29545 25.4488 7.4541C25.4565 10.8265 25.4574 14.1998 25.4488 17.5722C25.4488 17.741 25.3469 17.909 25.2924 18.0779C25.2614 18.1754 25.2363 18.2747 25.2009 18.3706C25.1499 18.508 25.1275 18.6768 25.0316 18.7735C24.3156 19.4981 23.5866 20.2107 22.8525 20.9175C22.7782 20.9896 22.6452 21.0303 22.5364 21.0354C22.2237 21.0507 21.9102 21.0456 21.5976 21.0388C21.4628 21.0354 21.4101 21.0659 21.4179 21.2136C21.4335 21.5088 21.4222 21.8057 21.4274 22.1018C21.43 22.2495 21.3842 22.3699 21.2763 22.4768C20.5611 23.1776 19.8486 23.881 19.136 24.5851C19.0039 24.7158 18.8536 24.7862 18.661 24.7735C18.5876 24.7684 18.4943 24.7718 18.4399 24.8108C18.1981 24.9847 17.9217 24.9907 17.6427 24.9907C16.3662 24.9924 15.0905 24.9924 13.8139 24.9924C13.4538 24.9924 13.0928 24.9924 12.7326 24.9924V24.9992V25ZM21.4853 6.1484C21.4689 6.15858 21.4525 6.16961 21.436 6.17979C21.436 6.25954 21.436 6.34014 21.436 6.41989C21.4343 8.15573 21.4326 9.89073 21.4309 11.6266C21.4283 13.4489 21.4248 15.2722 21.4214 17.0945C21.4214 17.3805 21.4179 17.383 21.1346 17.3839C20.5145 17.3855 19.8935 17.3855 19.2734 17.383C18.9633 17.3822 18.9607 17.3788 18.9598 17.0759C18.9538 15.2128 18.9495 13.3497 18.9452 11.4857C18.9452 11.2592 18.9365 11.2473 18.7094 11.2473C16.5467 11.2448 14.384 11.2431 12.2221 11.2397C11.4129 11.2388 10.6036 11.2397 9.7943 11.2321C9.53088 11.2295 9.52742 11.2202 9.52483 10.9707C9.51965 10.298 9.52137 9.62433 9.51274 8.95154C9.51101 8.8387 9.56801 8.82767 9.65352 8.82682C9.9014 8.82513 10.1501 8.82173 10.398 8.82173C13.1688 8.81834 15.9404 8.81495 18.7111 8.8141C18.8596 8.8141 18.9503 8.80307 18.9495 8.61302C18.9408 7.02226 18.9417 5.43235 18.9434 3.84159C18.9434 3.69057 18.8942 3.57603 18.7854 3.47253C18.4891 3.18916 18.1903 2.90749 17.9079 2.6114C17.7619 2.45868 17.6038 2.40184 17.3931 2.40354C16.3411 2.41287 15.29 2.41202 14.238 2.41202C12.1522 2.41202 10.0664 2.40948 7.98054 2.41372C7.86913 2.41372 7.72489 2.43323 7.65234 2.5011C7.1609 2.96433 6.68586 3.44368 6.17456 3.94679C6.30411 3.94679 6.38357 3.94679 6.46303 3.94679C9.68893 3.94679 12.9148 3.94594 16.1416 3.94509C16.5493 3.94509 16.9569 3.94085 17.3646 3.94848C17.5891 3.95273 17.6185 3.99091 17.6185 4.20725C17.6185 4.78162 17.6142 5.35684 17.6159 5.93121C17.6168 6.37323 17.6194 6.37663 17.1711 6.37663C12.7222 6.37493 8.27247 6.37069 3.82358 6.37323C3.73634 6.37323 3.63011 6.42244 3.5662 6.48352C3.26736 6.76435 2.98925 7.06638 2.68609 7.34296C2.52976 7.48549 2.47103 7.63481 2.47103 7.84352C2.47621 10.9436 2.47535 14.0428 2.46844 17.1429C2.46844 17.3389 2.52285 17.4797 2.66623 17.6163C3.04798 17.9794 3.41591 18.357 3.78817 18.7303C3.85467 18.7965 3.91599 18.8677 4.01273 18.9729C4.02568 18.7065 4.04555 18.4944 4.04555 18.2832C4.04728 14.87 4.04555 11.4569 4.04555 8.04374C4.04555 7.8011 4.04555 7.79262 4.29947 7.79177C4.97316 7.79007 5.64597 7.80025 6.31966 7.79601C6.46908 7.79516 6.49412 7.85455 6.4924 7.98181C6.48721 8.574 6.49067 9.16619 6.4898 9.75837C6.4898 11.0641 6.48808 12.3706 6.48808 13.6763C6.48808 13.9215 6.50881 13.941 6.76187 13.9436C6.82665 13.9436 6.89229 13.9436 6.95706 13.9436C9.87031 13.9436 12.7827 13.9436 15.6959 13.9436C15.9205 13.9436 15.949 13.9639 15.9499 14.176C15.9533 14.8089 15.955 15.4419 15.9499 16.0739C15.9481 16.3183 15.9179 16.3395 15.6683 16.3395C14.1672 16.3395 12.667 16.3386 11.1658 16.3395C9.67684 16.3395 8.18783 16.3437 6.69882 16.3412C6.54076 16.3412 6.48203 16.3895 6.48549 16.5524C6.49499 17.0691 6.48808 17.5858 6.48894 18.1025C6.48894 19.1239 6.48721 20.1454 6.49412 21.1669C6.49412 21.2636 6.51658 21.3883 6.57963 21.452C6.9277 21.8074 7.28786 22.151 7.6532 22.4896C7.71366 22.5456 7.81903 22.5812 7.90367 22.5812C11.1183 22.5846 14.3322 22.5846 17.5468 22.5778C17.641 22.5778 17.7584 22.532 17.8267 22.4675C18.2551 22.0594 18.6731 21.6412 19.0937 21.2254C19.1274 21.1924 19.1542 21.1516 19.2077 21.0855C19.0022 21.0702 18.8389 21.0473 18.6757 21.0473C15.1959 21.0447 11.7152 21.0439 8.23533 21.043C8.15242 21.043 8.0695 21.0379 7.98745 21.0413C7.83285 21.0464 7.76376 20.9811 7.76462 20.8233C7.76721 20.1505 7.76635 19.4769 7.75944 18.8032C7.75771 18.6599 7.80521 18.6166 7.95204 18.6166C9.12753 18.6208 10.3039 18.6183 11.4794 18.6183C14.8003 18.6183 18.1203 18.6174 21.4412 18.6191C21.6192 18.6191 21.7755 18.5971 21.9085 18.4622C22.2332 18.133 22.5701 17.8157 22.8914 17.4823C22.9562 17.4144 23.0028 17.2999 23.0028 17.2065C23.0071 14.2057 23.0054 11.2049 23.0037 8.20324C23.0037 8.04629 23.0045 7.88933 22.9916 7.73408C22.9864 7.66875 22.9613 7.59069 22.9164 7.54573C22.444 7.07741 21.9655 6.61588 21.4879 6.1518L21.4853 6.1484Z" fill="url(#paint0_linear_4200_36700)"/>
<path d="M98.8561 5.2511C99.7733 5.2511 100.664 5.25365 101.553 5.2494C101.844 5.24856 101.817 5.44454 101.817 5.62949C101.817 6.53474 101.817 7.43999 101.817 8.34439C101.817 10.5502 101.815 12.757 101.819 14.9628C101.819 15.2589 101.825 15.5592 101.877 15.8494C102.028 16.6953 102.497 17.3078 103.34 17.5844C104.239 17.8805 105.152 17.8813 106.052 17.5801C106.877 17.3044 107.346 16.7097 107.509 15.8859C107.568 15.583 107.577 15.2674 107.578 14.9577C107.583 11.889 107.588 8.82035 107.572 5.75081C107.571 5.34018 107.693 5.21801 108.108 5.23668C108.826 5.26977 109.547 5.25195 110.266 5.24177C110.5 5.23837 110.603 5.3037 110.602 5.55229C110.593 8.93234 110.614 12.3124 110.579 15.6924C110.549 18.6415 108.238 20.3748 105.683 20.6378C104.04 20.8066 102.46 20.6319 101.048 19.7088C99.6602 18.801 98.8751 17.5165 98.8552 15.8748C98.8138 12.4108 98.8293 8.94591 98.8224 5.48102C98.8224 5.42672 98.8379 5.37157 98.8569 5.2494L98.8561 5.2511Z" fill="#191935"/>
<path d="M75.018 10.7747C75.1285 10.7144 75.1734 10.7042 75.1968 10.6762C76.691 8.89119 79.9592 8.82502 81.8792 10.4624C84.6171 12.7981 84.6741 17.035 82.0036 19.4411C80.0818 21.1719 76.6417 21.1082 75.1804 19.302C75.1657 19.2842 75.1303 19.2825 75.0422 19.2519V20.3693H72.1971C72.1971 20.2123 72.1971 20.0622 72.1971 19.9111C72.1971 15.1898 72.2023 10.4675 72.1868 5.74615C72.1851 5.32958 72.3103 5.21505 72.7188 5.2388C73.307 5.27274 73.8995 5.27019 74.4877 5.2388C74.8936 5.21759 75.0344 5.33043 75.0275 5.75124C75.0024 7.2631 75.018 8.77666 75.018 10.2885C75.018 10.4277 75.018 10.5676 75.018 10.773V10.7747ZM78.0686 18.0497C79.8599 18.0472 81.1485 16.7848 81.1485 15.0294C81.1485 13.2469 79.8564 11.9387 78.085 11.9293C76.3248 11.92 75.0214 13.213 75.018 14.9717C75.0145 16.8026 76.2531 18.0523 78.0686 18.0497Z" fill="#191935"/>
<path d="M116.066 24.7101H113.245C113.237 24.5523 113.224 24.4022 113.224 24.252C113.224 19.5281 113.228 14.805 113.217 10.0811C113.216 9.71879 113.296 9.5805 113.692 9.59662C114.452 9.62717 115.214 9.60596 116.033 9.60596V10.7157C116.12 10.7157 116.161 10.7267 116.172 10.714C117.849 8.71683 121.612 8.7304 123.651 11.2061C126.076 14.1509 125.119 18.7187 121.703 20.2806C120.079 21.023 117.465 20.8346 116.216 19.3092C116.2 19.2897 116.167 19.2829 116.067 19.2328V24.7093L116.066 24.7101ZM116.048 14.9738C116.044 16.8055 117.279 18.0518 119.098 18.0527C120.884 18.0527 122.176 16.7835 122.177 15.0281C122.177 13.2439 120.891 11.9442 119.111 11.928C117.361 11.9119 116.052 13.2134 116.049 14.9738H116.048Z" fill="#191935"/>
<path d="M44.8267 8.2866C43.8965 8.81855 43.082 9.28603 42.2684 9.75095C41.992 9.39462 41.7562 9.03914 41.4695 8.73032C40.655 7.85222 39.1185 7.56546 38.0942 8.07026C37.582 8.32224 37.2391 8.69044 37.2141 9.27839C37.1881 9.90367 37.4568 10.3932 38.0216 10.6664C38.5994 10.9464 39.204 11.178 39.8103 11.3969C40.6602 11.704 41.5317 11.9543 42.3755 12.2741C44.9329 13.243 45.9849 16.0894 44.6237 18.3436C43.906 19.5331 42.7961 20.2169 41.4539 20.5037C39.4804 20.9253 37.5613 20.7913 35.7941 19.7248C34.7292 19.0817 34.0011 18.1646 33.5649 16.9743C34.4165 16.4873 35.2448 16.0147 36.0964 15.5278C36.1621 15.6355 36.2191 15.7127 36.2597 15.7967C36.9351 17.2195 38.1183 17.8286 39.6635 17.7938C40.1722 17.782 40.6939 17.6836 41.1801 17.5342C41.7761 17.3501 42.138 16.903 42.1699 16.2735C42.201 15.6525 41.9307 15.146 41.3408 14.9067C40.4002 14.5266 39.4312 14.2153 38.4811 13.8572C37.7582 13.5849 37.0223 13.3312 36.3348 12.9868C34.2697 11.9543 33.9415 10.0521 34.3198 8.34938C34.7102 6.59573 35.985 5.62091 37.6399 5.18059C39.7421 4.62064 41.7096 5.00581 43.3428 6.48628C43.8999 6.99108 44.311 7.65199 44.8258 8.28745L44.8267 8.2866Z" fill="#191935"/>
<path d="M88.3983 16.1384C88.6436 17.1115 89.2033 17.7309 90.0886 17.9845C91.4368 18.3706 92.7375 18.3383 93.8327 17.2939C93.9009 17.2286 94.0806 17.1896 94.1557 17.2303C94.845 17.6053 95.5221 18.0015 96.2329 18.4087C95.7449 19.1681 95.117 19.7178 94.3449 20.086C92.5458 20.9455 90.6828 20.937 88.8595 20.2345C86.5267 19.336 85.2303 17.0394 85.4523 14.4577C85.7934 10.4838 89.7509 8.24312 93.4423 9.71935C95.5782 10.5737 96.6069 12.3409 96.7848 14.5799C96.8133 14.9438 96.7649 15.3129 96.7658 15.6803C96.7667 16.0332 96.6259 16.152 96.2459 16.1486C93.8137 16.1299 91.3815 16.1392 88.9494 16.1392C88.793 16.1392 88.6367 16.1392 88.3992 16.1392L88.3983 16.1384ZM93.9182 13.9614C93.7161 12.5242 92.4447 11.6995 90.9885 11.7954C89.6386 11.8845 88.4018 12.8966 88.4173 13.9614H93.9182Z" fill="#191935"/>
<path d="M57.1923 12.0867C56.421 12.5347 55.6445 12.9852 54.8275 13.4586C54.2367 12.488 53.3549 12.0036 52.2208 12.018C51.3969 12.0282 50.6765 12.3268 50.1013 12.9224C48.9872 14.0754 49.0649 16.1582 50.2611 17.2196C51.5964 18.4048 53.4611 18.1545 54.8819 16.5739C55.6583 17.0075 56.4426 17.4444 57.2234 17.8796C56.5246 19.4857 54.2203 21.0544 51.2699 20.6378C48.6339 20.2654 46.6172 17.9967 46.5118 15.2335C46.4021 12.3328 48.2107 10.0073 51.0479 9.40151C53.5086 8.8755 56.3579 10.1065 57.1923 12.0867Z" fill="#191935"/>
<path d="M65.0466 9.36475V12.4071C64.7158 12.4368 64.3919 12.4572 64.0698 12.4954C62.6568 12.6617 61.7508 13.6221 61.7292 15.033C61.7041 16.6432 61.7197 18.2552 61.7171 19.8655C61.7171 20.0309 61.7171 20.1964 61.7171 20.3847H58.9152C58.9083 20.2345 58.8962 20.0979 58.8962 19.9622C58.8954 16.6695 58.9006 13.3769 58.8876 10.0842C58.8859 9.72702 58.9602 9.57685 59.36 9.59721C60.0199 9.62945 60.6832 9.61503 61.3439 9.6006C61.6212 9.59466 61.7343 9.68035 61.7222 9.96287C61.7041 10.3667 61.7179 10.7714 61.7611 11.2083C62.4814 9.95184 63.5947 9.42498 65.0466 9.36559V9.36475Z" fill="#191935"/>
<path d="M69.5439 9.60386V20.3812H66.7706C66.7637 20.2386 66.7516 20.102 66.7516 19.9663C66.7499 16.6711 66.755 13.375 66.7421 10.0798C66.7404 9.7167 66.8267 9.58011 67.2197 9.59538C67.9789 9.62507 68.7407 9.60386 69.5439 9.60386Z" fill="#191935"/>
<path d="M69.8859 6.61943C69.8773 7.50602 69.0715 8.25856 68.1335 8.25686C67.1921 8.25516 66.4208 7.48057 66.4208 6.53714C66.4208 5.6251 67.2378 4.83948 68.1732 4.8522C69.1336 4.86493 69.8963 5.65225 69.8868 6.61943H69.8859Z" fill="#191935"/>
</g>
<defs>
<linearGradient id="paint0_linear_4200_36700" x1="2.41834" y1="23.5857" x2="21.6062" y2="2.54282" gradientUnits="userSpaceOnUse">
<stop offset="0.15625" stop-color="#4264EA"/>
<stop offset="1" stop-color="#ADF9D3"/>
</linearGradient>
<clipPath id="clip0_4200_36700">
<rect width="125" height="25" fill="white"/>
</clipPath>
</defs>
</svg>
