<?xml version="1.0" encoding="UTF-8"?>
<svg xmlns="http://www.w3.org/2000/svg" xmlns:xlink="http://www.w3.org/1999/xlink" width="1215px" height="250px" viewBox="0 0 1215 250" version="1.1">
<defs>
<linearGradient id="linear0" gradientUnits="userSpaceOnUse" x1="0.13575" y1="0.86033" x2="0.87247" y2="0.13494" gradientTransform="matrix(244.359375,0,0,244.339844,-0.00390625,0)">
<stop offset="0" style="stop-color:rgb(56.078431%,63.921569%,100%);stop-opacity:1;"/>
<stop offset="1" style="stop-color:rgb(63.921569%,100%,80.392157%);stop-opacity:1;"/>
</linearGradient>
</defs>
<g id="surface1">
<path style=" stroke:none;fill-rule:nonzero;fill:rgb(100%,100%,100%);fill-opacity:1;" d="M 382.976562 202.476562 C 398.941406 202.476562 411.925781 198.429688 421.925781 190.34375 C 431.933594 182.253906 437.039062 171.394531 437.039062 157.558594 C 437.039062 149.050781 434.699219 141.59375 431.503906 136.488281 C 428.738281 131.378906 421.929688 126.058594 417.453125 123.289062 C 415.328125 121.800781 412.136719 120.308594 408.09375 118.820312 C 404.046875 117.121094 400.855469 115.839844 398.515625 115.199219 L 388.296875 111.800781 C 377.230469 108.390625 369.78125 105.199219 365.734375 102.429688 C 361.898438 99.449219 359.984375 95.621094 359.984375 90.933594 C 359.984375 82.210938 367.433594 76.035156 379.570312 76.035156 C 392.554688 76.035156 402.136719 82.421875 408.09375 95.195312 L 432.785156 80.929688 C 422.566406 59.859375 403.625 47.511719 379.570312 47.511719 C 366.160156 47.511719 354.449219 51.558594 344.871094 59.644531 C 335.300781 67.519531 330.613281 78.375 330.613281 91.789062 C 330.613281 105.410156 335.515625 115.628906 344.664062 122.441406 C 354.03125 129.039062 362.113281 132.230469 375.53125 136.273438 C 387.664062 139.679688 395.964844 142.875 400.648438 145.855469 C 405.328125 148.621094 407.671875 152.664062 407.671875 157.988281 C 407.671875 167.140625 400.21875 173.738281 383.828125 173.738281 C 366.800781 173.738281 355.308594 166.074219 349.558594 150.964844 L 324.441406 165.648438 C 332.738281 188.425781 353.390625 202.476562 382.976562 202.476562 Z M 505.585938 202.476562 C 526.234375 202.476562 544.324219 191.621094 553.691406 174.804688 L 529.851562 161.179688 C 525.589844 169.910156 516.441406 175.230469 505.371094 175.230469 C 497.070312 175.230469 490.253906 172.460938 484.933594 167.140625 C 479.613281 161.605469 476.84375 154.578125 476.84375 146.28125 C 476.84375 129.25 488.980469 117.121094 505.371094 117.121094 C 516.226562 117.121094 525.378906 122.65625 529.636719 131.378906 L 553.265625 117.546875 C 544.535156 100.730469 526.230469 90.085938 505.585938 90.085938 C 489.621094 90.085938 476.210938 95.40625 465.355469 106.261719 C 454.703125 117.121094 449.390625 130.316406 449.390625 146.28125 C 449.390625 162.246094 454.710938 175.441406 465.355469 186.300781 C 476.203125 197.148438 489.621094 202.476562 505.585938 202.476562 Z M 596.476562 199.496094 L 596.476562 148.621094 C 596.476562 138.40625 599.671875 131.171875 606.265625 126.695312 C 612.863281 122.226562 620.53125 120.523438 628.828125 121.589844 L 628.828125 90.941406 C 614.355469 90.941406 601.578125 97.75 596.480469 111.371094 L 596.480469 93.070312 L 569.015625 93.070312 L 569.015625 199.5 L 596.476562 199.5 Z M 658.421875 80.296875 C 667.785156 80.296875 675.445312 72.628906 675.445312 63.476562 C 675.445312 54.324219 667.785156 46.449219 658.421875 46.449219 C 649.265625 46.449219 641.601562 54.324219 641.601562 63.476562 C 641.601562 72.628906 649.265625 80.296875 658.421875 80.296875 Z M 672.253906 199.496094 L 672.253906 93.070312 L 644.796875 93.070312 L 644.796875 199.5 L 672.253906 199.5 Z M 759.316406 202.476562 C 773.574219 202.476562 785.925781 197.15625 795.925781 186.300781 C 806.144531 175.441406 811.253906 162.03125 811.253906 146.28125 C 811.253906 130.53125 806.144531 117.328125 795.925781 106.476562 C 785.925781 95.621094 773.574219 90.085938 759.316406 90.085938 C 744.414062 90.085938 732.921875 95.195312 724.828125 105.625 L 724.828125 50.488281 L 697.371094 50.488281 L 697.371094 199.496094 L 724.828125 199.496094 L 724.828125 186.933594 C 732.921875 197.363281 744.414062 202.476562 759.316406 202.476562 Z M 754.203125 176.296875 C 745.691406 176.296875 738.664062 173.523438 733.136719 167.996094 C 727.601562 162.246094 724.835938 155.011719 724.835938 146.28125 C 724.835938 137.554688 727.601562 130.316406 733.136719 124.78125 C 738.664062 119.03125 745.691406 116.265625 754.203125 116.265625 C 762.71875 116.265625 769.746094 119.035156 775.28125 124.78125 C 781.03125 130.316406 783.796875 137.554688 783.796875 146.28125 C 783.796875 155.011719 781.023438 162.246094 775.28125 167.988281 C 769.746094 173.523438 762.71875 176.289062 754.203125 176.289062 Z M 883.414062 202.476562 C 903.851562 202.476562 919.386719 194.816406 929.816406 179.699219 L 907.679688 166.929688 C 902.359375 173.949219 894.269531 177.570312 883.839844 177.570312 C 867.449219 177.570312 857.441406 170.96875 853.824219 157.558594 L 934.074219 157.558594 C 934.714844 153.519531 935.140625 149.898438 935.140625 146.28125 C 935.140625 130.316406 930.03125 117.121094 919.816406 106.261719 C 909.808594 95.410156 896.824219 90.085938 881.285156 90.085938 C 864.894531 90.085938 851.269531 95.40625 840.839844 106.261719 C 830.410156 116.910156 825.089844 130.316406 825.089844 146.28125 C 825.089844 162.460938 830.410156 175.871094 841.054688 186.511719 C 851.695312 197.15625 865.746094 202.476562 883.414062 202.476562 Z M 907.679688 136.273438 L 853.398438 136.273438 C 856.59375 122.65625 866.601562 114.773438 881.285156 114.773438 C 893.84375 114.773438 904.484375 121.800781 907.679688 136.273438 Z M 1011.128906 202.476562 C 1027.945312 202.476562 1041.570312 197.796875 1052.214844 188.425781 C 1062.855469 179.058594 1068.175781 166.5 1068.175781 150.75 L 1068.175781 50.488281 L 1038.804688 50.488281 L 1038.804688 148.410156 C 1038.804688 163.949219 1030.074219 173.738281 1011.128906 173.738281 C 992.183594 173.738281 983.460938 163.949219 983.460938 148.410156 L 983.460938 50.488281 L 954.296875 50.488281 L 954.296875 150.75 C 954.296875 166.5 959.621094 179.058594 970.261719 188.425781 C 980.90625 197.796875 994.523438 202.476562 1011.128906 202.476562 Z M 1120.753906 242.070312 L 1120.753906 186.933594 C 1128.84375 197.363281 1140.339844 202.476562 1155.238281 202.476562 C 1169.5 202.476562 1181.84375 197.15625 1191.851562 186.300781 C 1202.070312 175.441406 1207.175781 162.03125 1207.175781 146.28125 C 1207.175781 130.53125 1202.070312 117.328125 1191.851562 106.476562 C 1181.851562 95.621094 1169.5 90.085938 1155.238281 90.085938 C 1140.339844 90.085938 1128.839844 95.195312 1120.753906 105.625 L 1120.753906 93.066406 L 1093.296875 93.066406 L 1093.296875 242.066406 L 1120.753906 242.066406 Z M 1150.128906 176.296875 C 1141.613281 176.296875 1134.589844 173.523438 1129.054688 167.996094 C 1123.519531 162.246094 1120.753906 155.011719 1120.753906 146.28125 C 1120.753906 137.554688 1123.519531 130.316406 1129.054688 124.78125 C 1134.589844 119.03125 1141.613281 116.265625 1150.128906 116.265625 C 1158.644531 116.265625 1165.671875 119.035156 1171.203125 124.78125 C 1176.949219 130.316406 1179.714844 137.554688 1179.714844 146.28125 C 1179.714844 155.011719 1176.949219 162.246094 1171.203125 167.988281 C 1165.671875 173.523438 1158.644531 176.289062 1150.128906 176.289062 Z M 1150.128906 176.296875 "/>
<path style=" stroke:none;fill-rule:evenodd;fill:url(#linear0);" d="M 174.628906 0 C 176.316406 0 177.804688 0.835938 178.710938 2.113281 C 180.050781 1.855469 181.484375 2.164062 182.625 3.050781 L 183.085938 3.453125 L 205.648438 26.019531 L 205.648438 38.691406 L 218.316406 38.683594 L 240.515625 60.886719 C 241.671875 62.039062 242.125 63.636719 241.878906 65.136719 C 243.359375 65.996094 244.355469 67.605469 244.355469 69.445312 L 244.355469 175.085938 C 244.355469 176.871094 243.421875 178.433594 242.011719 179.320312 C 242.210938 180.769531 241.746094 182.296875 240.628906 183.410156 L 218.386719 205.648438 L 205.648438 205.648438 L 205.648438 218.390625 L 183.199219 240.839844 C 182.078125 241.960938 180.550781 242.421875 179.09375 242.226562 C 178.195312 243.503906 176.699219 244.339844 175.015625 244.339844 L 69.273438 244.339844 C 67.59375 244.339844 66.109375 243.511719 65.203125 242.238281 C 63.875 242.476562 62.464844 242.160156 61.34375 241.289062 L 60.886719 240.886719 L 38.699219 218.699219 L 38.699219 205.648438 L 25.648438 205.648438 L 3.449219 183.449219 C 2.285156 182.285156 1.828125 180.675781 2.089844 179.160156 C 0.820312 178.261719 -0.00390625 176.773438 -0.00390625 175.09375 L -0.00390625 69.441406 C -0.00390625 67.789062 0.796875 66.335938 2.019531 65.421875 C 1.671875 63.855469 2.109375 62.148438 3.335938 60.929688 L 25.550781 38.699219 L 31.183594 38.695312 L 31.183594 38.683594 L 38.699219 38.683594 L 38.699219 25.554688 L 60.765625 3.5 C 61.871094 2.398438 63.371094 1.929688 64.808594 2.101562 C 65.710938 0.835938 67.199219 0 68.878906 0 Z M 169.816406 23.671875 L 74.074219 23.671875 L 59.054688 38.691406 L 169.011719 38.691406 L 169.011719 62.363281 L 35.378906 62.363281 L 23.671875 74.074219 L 23.671875 170.183594 L 38.703125 185.21875 L 38.703125 76.09375 L 62.386719 76.09375 L 62.378906 136.125 L 153.039062 136.125 L 153.039062 159.804688 L 62.378906 159.800781 L 62.378906 208.683594 L 62.171875 208.683594 L 74.144531 220.660156 L 169.894531 220.660156 L 184.910156 205.644531 L 74.410156 205.644531 L 74.410156 181.976562 L 208.585938 181.96875 L 220.679688 169.875 L 220.679688 74.535156 L 205.644531 59.5 L 205.644531 169.949219 L 181.976562 169.949219 L 181.96875 109.914062 L 91.320312 109.914062 L 91.320312 86.25 L 181.96875 86.246094 L 181.96875 35.824219 Z M 169.816406 23.671875 "/>
</g>
</svg>
