<svg xmlns="http://www.w3.org/2000/svg" width="243" height="50" viewBox="0 0 243 50">
    <defs>
        <linearGradient id="iv3we8yzva" x1="13.575%" x2="87.247%" y1="86.033%" y2="13.494%">
            <stop offset="0%" stop-color="#8FA3FF"/>
            <stop offset="100%" stop-color="#A3FFCD"/>
        </linearGradient>
    </defs>
    <g fill="none" fill-rule="evenodd">
        <g>
            <g>
                <g fill="#FFF" fill-rule="nonzero">
                    <g>
                        <path d="M11.905 31.471c3.193 0 5.79-.809 7.79-2.426 2.002-1.618 3.023-3.79 3.023-6.557 0-1.702-.468-3.193-1.107-4.214-.553-1.022-1.915-2.086-2.81-2.64-.425-.298-1.064-.596-1.872-.894-.81-.34-1.448-.596-1.916-.724l-2.044-.68c-2.213-.682-3.703-1.32-4.512-1.874-.767-.596-1.15-1.362-1.15-2.299 0-1.745 1.49-2.98 3.917-2.98 2.597 0 4.513 1.277 5.705 3.832l4.938-2.853C19.823 2.948 16.035.478 11.224.478c-2.682 0-5.024.81-6.94 2.427C2.37 4.48 1.433 6.651 1.433 9.334c0 2.724.98 4.768 2.81 6.13 1.873 1.32 3.49 1.958 6.173 2.767 2.427.681 4.087 1.32 5.024 1.916.936.553 1.404 1.362 1.404 2.427 0 1.83-1.49 3.15-4.768 3.15-3.406 0-5.704-1.533-6.854-4.555L.198 24.106c1.66 4.555 5.79 7.365 11.707 7.365zm24.522 0c4.13 0 7.748-2.171 9.621-5.534l-4.768-2.725c-.852 1.746-2.682 2.81-4.896 2.81-1.66 0-3.023-.554-4.087-1.618-1.064-1.107-1.618-2.512-1.618-4.172 0-3.406 2.427-5.832 5.705-5.832 2.171 0 4.002 1.107 4.853 2.852l4.726-2.767c-1.746-3.363-5.407-5.492-9.536-5.492-3.193 0-5.875 1.064-8.046 3.235-2.13 2.172-3.193 4.811-3.193 8.004 0 3.193 1.064 5.832 3.193 8.004 2.17 2.17 4.853 3.235 8.046 3.235zm18.178-.596V20.7c0-2.043.639-3.49 1.958-4.385 1.32-.894 2.853-1.234 4.513-1.021v-6.13c-2.895 0-5.45 1.362-6.47 4.086V9.59h-5.493v21.286h5.492zm12.389-23.84c1.873 0 3.405-1.533 3.405-3.364 0-1.83-1.532-3.405-3.405-3.405-1.831 0-3.364 1.575-3.364 3.405 0 1.831 1.533 3.364 3.364 3.364zm2.767 23.84V9.59h-5.492v21.286h5.492zm17.412.596c2.852 0 5.322-1.064 7.322-3.235 2.044-2.172 3.066-4.854 3.066-8.004 0-3.15-1.022-5.79-3.066-7.961-2-2.171-4.47-3.278-7.322-3.278-2.98 0-5.279 1.022-6.897 3.108V1.074h-5.492v29.801h5.492v-2.512c1.618 2.086 3.917 3.108 6.897 3.108zm-1.022-5.236c-1.703 0-3.108-.554-4.214-1.66-1.107-1.15-1.66-2.597-1.66-4.343 0-1.745.553-3.193 1.66-4.3 1.106-1.15 2.511-1.703 4.214-1.703 1.703 0 3.108.554 4.215 1.703 1.15 1.107 1.703 2.555 1.703 4.3 0 1.746-.554 3.193-1.703 4.342-1.107 1.107-2.512 1.66-4.215 1.66zm25.842 5.236c4.087 0 7.194-1.532 9.28-4.555l-4.427-2.554c-1.064 1.404-2.682 2.128-4.768 2.128-3.278 0-5.28-1.32-6.003-4.002h16.05c.128-.808.213-1.532.213-2.256 0-3.193-1.022-5.832-3.065-8.004-2.001-2.17-4.598-3.235-7.706-3.235-3.278 0-6.003 1.064-8.089 3.235-2.086 2.13-3.15 4.811-3.15 8.004 0 3.236 1.064 5.918 3.193 8.046 2.128 2.129 4.938 3.193 8.472 3.193zm4.853-13.24H105.99c.639-2.724 2.64-4.3 5.577-4.3 2.512 0 4.64 1.405 5.279 4.3zm20.69 13.24c3.363 0 6.088-.936 8.217-2.81 2.128-1.873 3.192-4.385 3.192-7.535V1.074h-5.874v19.584c0 3.108-1.746 5.066-5.535 5.066s-5.534-1.958-5.534-5.066V1.074h-5.833v20.052c0 3.15 1.065 5.662 3.193 7.535 2.129 1.874 4.853 2.81 8.174 2.81zm21.925 7.919V28.363c1.618 2.086 3.917 3.108 6.897 3.108 2.852 0 5.321-1.064 7.322-3.235 2.044-2.172 3.065-4.854 3.065-8.004 0-3.15-1.021-5.79-3.065-7.961-2-2.171-4.47-3.278-7.322-3.278-2.98 0-5.28 1.022-6.897 3.108V9.589h-5.492v29.8h5.492zm5.875-13.155c-1.703 0-3.108-.554-4.215-1.66-1.107-1.15-1.66-2.597-1.66-4.343 0-1.745.553-3.193 1.66-4.3 1.107-1.15 2.512-1.703 4.215-1.703 1.703 0 3.108.554 4.215 1.703 1.149 1.107 1.702 2.555 1.702 4.3 0 1.746-.553 3.193-1.702 4.342-1.107 1.107-2.512 1.66-4.215 1.66z" transform="translate(-100 -150) translate(100 150) translate(64.437 8.88) translate(.253 .144)"/>
                    </g>
                </g>
                <path fill="url(#iv3we8yzva)" d="M34.926 0c.337 0 .635.167.816.423.268-.052.555.01.783.187l.092.081 4.513 4.513v2.534l2.533-.001 4.44 4.44c.231.231.322.55.273.85.296.172.495.494.495.862v21.128c0 .357-.187.67-.469.847.04.29-.053.595-.276.818l-4.449 4.448H41.13v2.548l-4.49 4.49c-.224.224-.53.316-.821.277-.18.256-.479.423-.816.423H13.855c-.336 0-.633-.166-.814-.42-.266.047-.548-.016-.772-.19l-.092-.081L7.74 43.74V41.13h-2.61L.69 36.69c-.233-.233-.324-.555-.272-.858-.254-.18-.419-.477-.419-.813V13.888c0-.33.16-.621.405-.804-.07-.313.018-.654.263-.898L5.11 7.74l1.127-.001v-.002h1.503V5.111L12.153.7c.221-.22.521-.314.809-.28.18-.253.478-.42.814-.42h21.15zm-.963 4.734H14.815l-3.004 3.004h21.991v4.735H7.076l-2.342 2.342v19.222l3.007 3.007V15.219h4.736l-.001 12.006h18.132v4.736l-18.132-.001v9.777h-.042l2.395 2.395h19.15l3.003-3.003h-22.1v-4.734l26.835-.001 2.419-2.419V14.907L41.129 11.9v22.09h-4.734l-.001-12.007h-18.13V17.25l18.13-.001V7.165l-2.431-2.431z" transform="translate(-100 -150) translate(100 150)"/>
            </g>
        </g>
    </g>
</svg>
