<svg height="83" viewBox="0 0 400 83" width="400" xmlns="http://www.w3.org/2000/svg"><g fill-rule="evenodd" transform="translate(0 .166667)"><path d="m58.4222119 0c.4372255 0 .8089134.28059932.9448066.67154066.3829859-.0141099.7703513.1084361 1.0832946.36674604l.1153351.10485023 7.4645427 7.46485093-.0005075 4.19134434 4.1909704-.0024981 7.342911 7.3442183c.3299554.3300151.4874478.7671748.4724791 1.1994732.4552211.0911626.798503.4945862.798503.9781876v36.2546865c0 .469369-.3233736.86321-.7594848.9708871-.0023186.4081387-.1601187.816539-.472455 1.1289318l-7.3593196 7.3578613-4.2136042-.0013966.0005076 4.2144932-7.4255005 7.4269576c-.3062871.3062326-.7048658.4639102-1.106194.4730342-.1308469.3971713-.506361.6848472-.9490654.6848472h-36.2865084c-.4372254 0-.8089133-.2805993-.9448065-.6715406-.3762002.0093756-.7547662-.1133734-1.061728-.3667461l-.1153351-.1048502-7.3370245-7.3366172.000835-4.3195781-4.31901651.0013966-7.3427106-7.3431168c-.3215212-.3215793-.47928362-.7448957-.47328891-1.1663148-.38924811-.135716-.66984742-.5074039-.66984742-.9446294v-36.259808c0-.4227222.26229245-.7841826.63300717-.9305112-.02419765-.4416023.13280734-.892562.47108693-1.2309028l7.34941905-7.3524961 1.86448689-.0003008.0002921-.0036678 2.4857079-.0003322.0000284-4.34459778 7.2979823-7.29652081c.2999273-.29987393.6883534-.45729804 1.0811987-.47227367.1312026-.3979318.5067167-.68560774.9494212-.68560774zm-2.2442118 7.831h-31.674l-4.968 4.968 36.3740953.0003322v7.8317208l-44.2070953-.000053-3.87200004 3.872v31.797l4.97300004 4.973.0008635-36.0996117h7.8317208l-.0005843 19.8586117 29.9904808.0003946v7.8317208l-29.9904808-.0001154.0005843 16.1709895-.0715843-.0009895 3.963 3.963h31.674l4.968-4.968-36.5560204.0006833v-7.8317208l44.3880204-.0009625 4-4v-31.541l-4.973-4.973.0006833 36.5375672h-7.8317208l-.0009625-19.8595672-29.9889341.0005608v-7.8317208l29.9889341-.00084v-16.679z"/><path d="m126.690346 66.6466958c5.281217 0 9.576607-1.3379084 12.88617-4.0137252s4.999552-6.2670447 4.999552-10.8440998c0-2.8166492-.774578-5.2812174-1.830822-6.9712069-.915411-1.6899896-3.16873-3.4503954-4.647471-4.3658064-.704162-.4929136-1.760406-.9858273-3.098314-1.4787409-1.337908-.5633298-2.394152-.9858272-3.168731-1.1970759l-3.379979-1.1266597c-3.661644-1.1266597-6.126212-2.1829032-7.46412-3.0983142-1.267492-.9858273-1.901239-2.2533195-1.901239-3.8024766 0-2.8870655 2.464569-4.9291362 6.478294-4.9291362 4.29539 0 7.46412 2.1124869 9.435775 6.3374609l8.168283-4.7178876c-3.379979-6.9712069-9.647024-11.0553484-17.604058-11.0553484-4.436223 0-8.309116 1.3379084-11.477846 4.0137252-3.16873 2.6054006-4.717888 6.1966284-4.717888 10.6328511 0 4.5066388 1.619574 7.8866179 4.647472 10.1399374 3.098314 2.1829032 5.774131 3.2391466 10.210353 4.577055 4.013726 1.1266598 6.759959 2.1829032 8.309116 3.1687305 1.549157.915411 2.323735 2.2533194 2.323735 4.0137252 0 3.027898-2.464568 5.2108012-7.886618 5.2108012-5.633298 0-9.435775-2.5349844-11.337013-7.5345368l-8.309115 4.85872c2.746233 7.5345368 9.576607 12.1820081 19.364464 12.1820081zm40.559749 0c6.830375 0 12.815754-3.5912278 15.914069-9.1541102l-7.886618-4.5066388c-1.408325 2.8870655-4.436223 4.6474713-8.097867 4.6474713-2.746233 0-4.999553-.915411-6.759958-2.6758168-1.760406-1.830822-2.675817-4.1545577-2.675817-6.9007908 0-5.6332985 4.013725-9.6470237 9.435775-9.6470237 3.591228 0 6.619126 1.830822 8.02745 4.7178875l7.816202-4.5770551c-2.887065-5.5628823-8.942861-9.0836939-15.773236-9.0836939-5.281217 0-9.71744 1.7604058-13.308668 5.3516336-3.520811 3.5912279-5.281217 7.9570342-5.281217 13.2382516s1.760406 9.6470238 5.281217 13.2382517c3.591228 3.5912278 8.027451 5.3516336 13.308668 5.3516336zm30.067731-.9858273v-16.8294794c0-3.3799791 1.056244-5.774131 3.239147-7.2528719s4.717887-2.0420707 7.46412-1.6899896v-10.1399374c-4.788303 0-9.013277 2.2533195-10.703267 6.7599583v-6.055796h-9.083694v35.208116zm20.491124-39.4330899c3.098314 0 5.633298-2.5349843 5.633298-5.5628823s-2.534984-5.6332986-5.633298-5.6332986c-3.027898 0-5.562883 2.6054006-5.562883 5.6332986s2.534985 5.5628823 5.562883 5.5628823zm4.577055 39.4330899v-35.208116h-9.083694v35.208116zm28.800239.9858273c4.717887 0 8.802029-1.7604058 12.111592-5.3516336 3.379979-3.5912279 5.069968-8.0274505 5.069968-13.2382517 0-5.2108011-1.689989-9.5766075-5.069968-13.1678353-3.309563-3.5912279-7.393705-5.4220499-12.111592-5.4220499-4.929137 0-8.731613 1.6899896-11.40743 5.1403849v-18.2378041h-9.083694v49.2913624h9.083694v-4.1545576c2.675817 3.4503953 6.478293 5.1403849 11.40743 5.1403849zm-1.68999-8.6611965c-2.816649 0-5.140385-.9154111-6.971207-2.7462331-1.830822-1.9012383-2.746233-4.2953901-2.746233-7.1824557 0-2.8870655.915411-5.2812174 2.746233-7.1120394 1.830822-1.9012382 4.154558-2.8166493 6.971207-2.8166493s5.140385.9154111 6.971207 2.8166493c1.901238 1.830822 2.816649 4.2249739 2.816649 7.1120394 0 2.8870656-.915411 5.2812174-2.816649 7.1824557-1.830822 1.830822-4.154558 2.7462331-6.971207 2.7462331zm42.742653 8.6611965c6.759958 0 11.900343-2.5349844 15.350739-7.5345368l-7.323289-4.2249739c-1.760405 2.3237356-4.436222 3.5208116-7.886618 3.5208116-5.422049 0-8.731612-2.1829032-9.928688-6.6191259h26.546919c.211249-1.3379084.352081-2.5349843.352081-3.7320603 0-5.2812174-1.689989-9.6470237-5.069968-13.2382516-3.309563-3.5912278-7.604953-5.3516336-12.745338-5.3516336-5.42205 0-9.928689 1.7604058-13.379084 5.3516336-3.450396 3.5208116-5.210802 7.9570342-5.210802 13.2382516 0 5.3516337 1.760406 9.7878563 5.281218 13.3086679 3.520811 3.5208116 8.168283 5.2812174 14.01283 5.2812174zm8.02745-21.8994482h-17.956139c1.056244-4.5066388 4.365807-7.1120394 9.224527-7.1120394 4.154557 0 7.675369 2.3237357 8.731612 7.1120394zm34.222289 21.8994482c5.562882 0 10.069521-1.5491571 13.590333-4.6474713s5.281217-7.2528719 5.281217-12.4636731v-33.1660453h-9.71744v32.3914668c0 5.1403849-2.887065 8.3795316-9.15411 8.3795316-6.267044 0-9.15411-3.2391467-9.15411-8.3795316v-32.3914668h-9.647024v33.1660453c0 5.2108012 1.760406 9.3653589 5.281218 12.4636731 3.520811 3.0983142 8.02745 4.6474713 13.519916 4.6474713zm36.26436 13.0974191v-18.237804c2.675816 3.4503953 6.478293 5.1403849 11.407429 5.1403849 4.717888 0 8.802029-1.7604058 12.111592-5.3516336 3.379979-3.5912279 5.069969-8.0274505 5.069969-13.2382517 0-5.2108011-1.68999-9.5766075-5.069969-13.1678353-3.309563-3.5912279-7.393704-5.4220499-12.111592-5.4220499-4.929136 0-8.731613 1.6899896-11.407429 5.1403849v-4.1545577h-9.083694v49.2913624zm9.71744-21.7586156c-2.81665 0-5.140385-.9154111-6.971207-2.7462331-1.830822-1.9012383-2.746233-4.2953901-2.746233-7.1824557 0-2.8870655.915411-5.2812174 2.746233-7.1120394 1.830822-1.9012382 4.154557-2.8166493 6.971207-2.8166493 2.816649 0 5.140385.9154111 6.971207 2.8166493 1.901238 1.830822 2.816649 4.2249739 2.816649 7.1120394 0 2.8870656-.915411 5.2812174-2.816649 7.1824557-1.830822 1.830822-4.154558 2.7462331-6.971207 2.7462331z" fill-rule="nonzero"/></g></svg>