<?xml version="1.0" encoding="UTF-8"?>
<svg xmlns="http://www.w3.org/2000/svg" xmlns:xlink="http://www.w3.org/1999/xlink" width="1250px" height="250px" viewBox="0 0 1250 250" version="1.1">
<defs>
<linearGradient id="linear0" gradientUnits="userSpaceOnUse" x1="2.41834" y1="23.5857" x2="21.6062" y2="2.54282" gradientTransform="matrix(10,0,0,10,0,0)">
<stop offset="0.15625" style="stop-color:rgb(25.882353%,39.215686%,91.764706%);stop-opacity:1;"/>
<stop offset="1" style="stop-color:rgb(67.843137%,97.647059%,82.745098%);stop-opacity:1;"/>
</linearGradient>
</defs>
<g id="surface1">
<path style=" stroke:none;fill-rule:nonzero;fill:url(#linear0);" d="M 127.324219 250 C 112.140625 250 96.957031 250.007812 81.765625 249.992188 C 79.519531 249.992188 77.273438 249.914062 75.039062 249.753906 C 73.992188 249.679688 72.871094 249.507812 71.972656 249.039062 C 70.15625 248.101562 68.335938 247.589844 66.253906 247.574219 C 65.382812 247.574219 64.335938 246.921875 63.664062 246.265625 C 56.296875 239.148438 48.953125 231.996094 41.691406 224.761719 C 40.964844 224.03125 40.558594 222.730469 40.507812 221.671875 C 40.351562 218.601562 40.421875 215.519531 40.464844 212.441406 C 40.488281 210.949219 40.023438 210.253906 38.320312 210.328125 C 35.488281 210.464844 32.648438 210.328125 29.816406 210.371094 C 27.941406 210.394531 26.394531 209.828125 25.046875 208.496094 C 18.207031 201.761719 11.324219 195.058594 4.449219 188.347656 C 2.929688 186.863281 1.867188 185.242188 2.160156 182.960938 C 2.253906 182.238281 1.726562 181.449219 1.503906 180.683594 C 0.992188 178.929688 0.0703125 177.171875 0.0585938 175.417969 C -0.015625 142.335938 0.015625 109.25 0 76.160156 C 0 73.734375 0.386719 71.460938 1.691406 69.332031 C 2.082031 68.695312 2.210938 67.761719 2.117188 67 C 1.832031 64.691406 2.808594 63.003906 4.40625 61.449219 C 9.65625 56.34375 14.847656 51.183594 20.0625 46.050781 C 21.730469 44.40625 23.449219 42.8125 25.089844 41.140625 C 26.238281 39.96875 27.605469 39.492188 29.21875 39.5 C 32.292969 39.519531 35.367188 39.390625 38.433594 39.535156 C 40.007812 39.613281 40.394531 39 40.394531 37.667969 C 40.378906 34.539062 40.464844 31.398438 40.394531 28.269531 C 40.359375 26.828125 40.785156 25.707031 41.820312 24.6875 C 48.808594 17.851562 55.769531 10.976562 62.746094 4.125 C 64.128906 2.765625 65.648438 1.859375 67.792969 2.121094 C 68.628906 2.222656 69.554688 1.613281 70.441406 1.367188 C 72.058594 0.917969 73.691406 0.109375 75.3125 0.101562 C 95.816406 0 116.320312 0.015625 136.828125 0 C 150.179688 0 163.53125 0.015625 176.894531 0 C 179.414062 0 181.851562 0.109375 183.90625 1.832031 C 184.21875 2.09375 184.820312 2.25 185.210938 2.144531 C 188.171875 1.375 190.195312 2.875 192.09375 4.75 C 196.921875 9.535156 201.75 14.3125 206.578125 19.089844 C 208.539062 21.023438 210.472656 22.976562 212.484375 24.859375 C 213.800781 26.097656 214.488281 27.472656 214.394531 29.320312 C 214.273438 31.925781 214.445312 34.546875 214.324219 37.152344 C 214.246094 38.847656 214.679688 39.542969 216.578125 39.425781 C 219.402344 39.253906 222.253906 39.449219 225.089844 39.375 C 226.675781 39.332031 227.921875 39.796875 229.035156 40.917969 C 234.742188 46.636719 240.480469 52.328125 246.214844 58.023438 C 247.171875 58.972656 248.089844 59.964844 249.117188 60.839844 C 251.015625 62.453125 251.964844 64.410156 252.0625 66.90625 C 252.09375 67.871094 252.820312 68.804688 253.140625 69.789062 C 253.648438 71.359375 254.488281 72.953125 254.488281 74.539062 C 254.566406 108.265625 254.574219 141.996094 254.488281 175.722656 C 254.488281 177.410156 253.46875 179.089844 252.925781 180.777344 C 252.613281 181.753906 252.363281 182.746094 252.007812 183.707031 C 251.5 185.078125 251.273438 186.769531 250.316406 187.734375 C 243.15625 194.980469 235.867188 202.105469 228.523438 209.175781 C 227.78125 209.894531 226.453125 210.304688 225.363281 210.355469 C 222.238281 210.507812 219.101562 210.457031 215.976562 210.386719 C 214.628906 210.355469 214.101562 210.660156 214.179688 212.136719 C 214.335938 215.089844 214.222656 218.058594 214.273438 221.019531 C 214.300781 222.496094 213.84375 223.699219 212.761719 224.769531 C 205.609375 231.777344 198.484375 238.808594 191.359375 245.851562 C 190.039062 247.15625 188.535156 247.863281 186.609375 247.734375 C 185.875 247.683594 184.941406 247.71875 184.398438 248.109375 C 181.980469 249.847656 179.21875 249.90625 176.425781 249.90625 C 163.660156 249.925781 150.90625 249.925781 138.140625 249.925781 C 134.539062 249.925781 130.929688 249.925781 127.324219 249.925781 Z M 214.851562 61.484375 C 214.6875 61.585938 214.523438 61.695312 214.359375 61.796875 C 214.359375 62.59375 214.359375 63.402344 214.359375 64.199219 C 214.34375 81.558594 214.324219 98.90625 214.308594 116.265625 C 214.28125 134.488281 214.246094 152.722656 214.214844 170.945312 C 214.214844 173.804688 214.179688 173.828125 211.347656 173.839844 C 205.144531 173.855469 198.933594 173.855469 192.734375 173.828125 C 189.632812 173.820312 189.605469 173.789062 189.597656 170.757812 C 189.539062 152.128906 189.496094 133.496094 189.453125 114.855469 C 189.453125 112.59375 189.363281 112.472656 187.09375 112.472656 C 165.46875 112.449219 143.839844 112.429688 122.222656 112.398438 C 114.128906 112.386719 106.035156 112.398438 97.941406 112.320312 C 95.308594 112.296875 95.273438 112.203125 95.25 109.707031 C 95.195312 102.980469 95.214844 96.242188 95.128906 89.515625 C 95.109375 88.386719 95.679688 88.277344 96.535156 88.269531 C 99.015625 88.25 101.5 88.21875 103.980469 88.21875 C 131.6875 88.183594 159.402344 88.148438 187.109375 88.140625 C 188.597656 88.140625 189.503906 88.03125 189.496094 86.128906 C 189.40625 70.222656 189.417969 54.324219 189.433594 38.414062 C 189.433594 36.90625 188.941406 35.761719 187.855469 34.726562 C 184.890625 31.890625 181.902344 29.074219 179.078125 26.113281 C 177.617188 24.585938 176.039062 24.019531 173.929688 24.035156 C 163.410156 24.128906 152.898438 24.121094 142.378906 24.121094 C 121.523438 24.121094 100.664062 24.09375 79.804688 24.136719 C 78.691406 24.136719 77.25 24.332031 76.523438 25.011719 C 71.609375 29.644531 66.859375 34.4375 61.746094 39.46875 C 63.042969 39.46875 63.835938 39.46875 64.628906 39.46875 C 96.890625 39.46875 129.148438 39.460938 161.414062 39.449219 C 165.492188 39.449219 169.570312 39.410156 173.644531 39.484375 C 175.890625 39.527344 176.183594 39.910156 176.183594 42.074219 C 176.183594 47.816406 176.140625 53.570312 176.160156 59.3125 C 176.167969 63.730469 176.195312 63.765625 171.710938 63.765625 C 127.222656 63.75 82.726562 63.707031 38.234375 63.730469 C 37.363281 63.730469 36.300781 64.222656 35.660156 64.835938 C 32.671875 67.644531 29.890625 70.664062 26.859375 73.429688 C 25.296875 74.855469 24.710938 76.347656 24.710938 78.433594 C 24.761719 109.4375 24.753906 140.429688 24.683594 171.429688 C 24.683594 173.390625 25.226562 174.796875 26.664062 176.164062 C 30.480469 179.792969 34.160156 183.570312 37.882812 187.304688 C 38.546875 187.964844 39.160156 188.675781 40.128906 189.730469 C 40.257812 187.066406 40.457031 184.945312 40.457031 182.832031 C 40.472656 148.699219 40.457031 114.570312 40.457031 80.4375 C 40.457031 78.011719 40.457031 77.925781 42.996094 77.917969 C 49.730469 77.902344 56.460938 78.003906 63.195312 77.960938 C 64.691406 77.953125 64.941406 78.546875 64.925781 79.816406 C 64.871094 85.738281 64.90625 91.660156 64.898438 97.582031 C 64.898438 110.640625 64.878906 123.707031 64.878906 136.761719 C 64.878906 139.214844 65.089844 139.410156 67.617188 139.4375 C 68.265625 139.4375 68.921875 139.4375 69.570312 139.4375 C 98.703125 139.4375 127.828125 139.4375 156.960938 139.4375 C 159.203125 139.4375 159.488281 139.640625 159.5 141.761719 C 159.53125 148.089844 159.550781 154.417969 159.5 160.738281 C 159.480469 163.183594 159.179688 163.394531 156.683594 163.394531 C 141.671875 163.394531 126.671875 163.386719 111.65625 163.394531 C 96.769531 163.394531 81.878906 163.4375 66.988281 163.410156 C 65.40625 163.410156 64.820312 163.894531 64.855469 165.523438 C 64.949219 170.691406 64.878906 175.859375 64.890625 181.023438 C 64.890625 191.238281 64.871094 201.453125 64.941406 211.667969 C 64.941406 212.636719 65.164062 213.882812 65.796875 214.519531 C 69.277344 218.074219 72.878906 221.511719 76.53125 224.894531 C 77.136719 225.457031 78.191406 225.8125 79.035156 225.8125 C 111.183594 225.847656 143.320312 225.847656 175.46875 225.777344 C 176.410156 225.777344 177.585938 225.320312 178.265625 224.675781 C 182.550781 220.59375 186.730469 216.410156 190.9375 212.253906 C 191.273438 211.925781 191.542969 211.515625 192.078125 210.855469 C 190.023438 210.703125 188.390625 210.472656 186.757812 210.472656 C 151.960938 210.445312 117.152344 210.4375 82.351562 210.429688 C 81.523438 210.429688 80.695312 210.378906 79.875 210.414062 C 78.328125 210.464844 77.636719 209.8125 77.644531 208.234375 C 77.671875 201.503906 77.664062 194.769531 77.59375 188.03125 C 77.578125 186.597656 78.050781 186.164062 79.519531 186.164062 C 91.273438 186.207031 103.039062 186.183594 114.792969 186.183594 C 148.003906 186.183594 181.203125 186.175781 214.410156 186.191406 C 216.191406 186.191406 217.753906 185.972656 219.085938 184.621094 C 222.332031 181.328125 225.699219 178.15625 228.914062 174.824219 C 229.5625 174.144531 230.027344 173 230.027344 172.066406 C 230.070312 142.058594 230.054688 112.050781 230.035156 82.03125 C 230.035156 80.464844 230.046875 78.894531 229.914062 77.339844 C 229.863281 76.6875 229.613281 75.90625 229.164062 75.457031 C 224.441406 70.773438 219.65625 66.160156 214.878906 61.519531 Z M 214.851562 61.484375 "/>
<path style=" stroke:none;fill-rule:nonzero;fill:rgb(9.803922%,9.803922%,20.784314%);fill-opacity:1;" d="M 988.5625 52.511719 C 997.734375 52.511719 1006.640625 52.535156 1015.53125 52.492188 C 1018.441406 52.484375 1018.171875 54.445312 1018.171875 56.292969 C 1018.171875 65.347656 1018.171875 74.398438 1018.171875 83.445312 C 1018.171875 105.503906 1018.148438 127.570312 1018.191406 149.628906 C 1018.191406 152.589844 1018.25 155.59375 1018.769531 158.492188 C 1020.28125 166.953125 1024.96875 173.078125 1033.398438 175.84375 C 1042.390625 178.804688 1051.519531 178.8125 1060.519531 175.800781 C 1068.769531 173.042969 1073.460938 167.097656 1075.089844 158.859375 C 1075.679688 155.828125 1075.769531 152.675781 1075.78125 149.578125 C 1075.828125 118.890625 1075.878906 88.203125 1075.71875 57.507812 C 1075.710938 53.402344 1076.929688 52.179688 1081.078125 52.367188 C 1088.261719 52.699219 1095.46875 52.519531 1102.660156 52.417969 C 1105 52.382812 1106.03125 53.035156 1106.019531 55.523438 C 1105.929688 89.324219 1106.140625 123.125 1105.789062 156.925781 C 1105.488281 186.414062 1082.378906 203.746094 1056.828125 206.378906 C 1040.398438 208.066406 1024.601562 206.320312 1010.480469 197.089844 C 996.601562 188.011719 988.75 175.164062 988.550781 158.746094 C 988.136719 124.109375 988.292969 89.460938 988.222656 54.808594 C 988.222656 54.265625 988.378906 53.714844 988.570312 52.492188 Z M 988.5625 52.511719 "/>
<path style=" stroke:none;fill-rule:nonzero;fill:rgb(9.803922%,9.803922%,20.784314%);fill-opacity:1;" d="M 750.179688 107.746094 C 751.285156 107.144531 751.734375 107.042969 751.96875 106.761719 C 766.910156 88.910156 799.59375 88.25 818.792969 104.625 C 846.171875 127.980469 846.742188 170.351562 820.035156 194.410156 C 800.816406 211.71875 766.417969 211.082031 751.804688 193.019531 C 751.65625 192.84375 751.304688 192.824219 750.421875 192.519531 L 750.421875 203.691406 L 721.972656 203.691406 C 721.972656 202.121094 721.972656 200.621094 721.972656 199.109375 C 721.972656 151.898438 722.023438 104.675781 721.867188 57.460938 C 721.851562 53.296875 723.101562 52.152344 727.1875 52.386719 C 733.070312 52.726562 738.996094 52.703125 744.878906 52.386719 C 748.9375 52.175781 750.34375 53.304688 750.273438 57.511719 C 750.023438 72.632812 750.179688 87.765625 750.179688 102.886719 C 750.179688 104.277344 750.179688 105.675781 750.179688 107.730469 Z M 780.6875 180.496094 C 798.597656 180.472656 811.484375 167.847656 811.484375 150.292969 C 811.484375 132.46875 798.5625 119.386719 780.851562 119.292969 C 763.246094 119.199219 750.214844 132.128906 750.179688 149.71875 C 750.144531 168.027344 762.53125 180.523438 780.6875 180.496094 Z M 780.6875 180.496094 "/>
<path style=" stroke:none;fill-rule:nonzero;fill:rgb(9.803922%,9.803922%,20.784314%);fill-opacity:1;" d="M 1160.660156 247.101562 L 1132.449219 247.101562 C 1132.371094 245.523438 1132.238281 244.023438 1132.238281 242.519531 C 1132.238281 195.28125 1132.28125 148.050781 1132.171875 100.8125 C 1132.160156 97.1875 1132.960938 95.804688 1136.921875 95.964844 C 1144.519531 96.273438 1152.140625 96.058594 1160.328125 96.058594 L 1160.328125 107.15625 C 1161.199219 107.15625 1161.609375 107.265625 1161.71875 107.140625 C 1178.488281 87.167969 1216.121094 87.304688 1236.511719 112.0625 C 1260.761719 141.507812 1251.191406 187.1875 1217.03125 202.804688 C 1200.789062 210.230469 1174.648438 208.347656 1162.160156 193.09375 C 1162 192.898438 1161.671875 192.828125 1160.671875 192.328125 L 1160.671875 247.09375 Z M 1160.480469 149.738281 C 1160.441406 168.054688 1172.789062 180.519531 1190.980469 180.527344 C 1208.839844 180.527344 1221.761719 167.835938 1221.769531 150.28125 C 1221.769531 132.4375 1208.910156 119.441406 1191.109375 119.28125 C 1173.609375 119.117188 1160.519531 132.132812 1160.488281 149.738281 Z M 1160.480469 149.738281 "/>
<path style=" stroke:none;fill-rule:nonzero;fill:rgb(9.803922%,9.803922%,20.784314%);fill-opacity:1;" d="M 448.265625 82.867188 C 438.964844 88.183594 430.820312 92.859375 422.683594 97.507812 C 419.921875 93.945312 417.5625 90.390625 414.695312 87.304688 C 406.550781 78.523438 391.183594 75.65625 380.941406 80.703125 C 375.820312 83.222656 372.390625 86.90625 372.140625 92.785156 C 371.882812 99.035156 374.566406 103.933594 380.214844 106.664062 C 385.992188 109.464844 392.039062 111.78125 398.101562 113.96875 C 406.601562 117.039062 415.316406 119.542969 423.753906 122.742188 C 449.328125 132.429688 459.847656 160.894531 446.238281 183.4375 C 439.058594 195.332031 427.960938 202.167969 414.539062 205.035156 C 394.804688 209.253906 375.613281 207.914062 357.941406 197.246094 C 347.292969 190.816406 340.011719 181.644531 335.648438 169.742188 C 344.164062 164.871094 352.449219 160.148438 360.964844 155.277344 C 361.621094 156.355469 362.191406 157.128906 362.597656 157.96875 C 369.351562 172.195312 381.183594 178.285156 396.636719 177.9375 C 401.722656 177.820312 406.9375 176.835938 411.800781 175.34375 C 417.761719 173.5 421.378906 169.03125 421.699219 162.734375 C 422.011719 156.523438 419.308594 151.460938 413.40625 149.066406 C 404.003906 145.265625 394.3125 142.152344 384.8125 138.570312 C 377.582031 135.847656 370.222656 133.3125 363.347656 129.867188 C 342.695312 119.542969 339.414062 100.519531 343.199219 83.492188 C 347.101562 65.957031 359.851562 56.210938 376.398438 51.804688 C 397.421875 46.207031 417.097656 50.058594 433.429688 64.863281 C 439 69.910156 443.109375 76.519531 448.257812 82.875 Z M 448.265625 82.867188 "/>
<path style=" stroke:none;fill-rule:nonzero;fill:rgb(9.803922%,9.803922%,20.784314%);fill-opacity:1;" d="M 883.984375 161.382812 C 886.4375 171.113281 892.03125 177.308594 900.886719 179.84375 C 914.367188 183.707031 927.375 183.382812 938.328125 172.9375 C 939.007812 172.285156 940.804688 171.894531 941.558594 172.304688 C 948.449219 176.054688 955.222656 180.015625 962.328125 184.085938 C 957.449219 191.679688 951.171875 197.179688 943.449219 200.859375 C 925.457031 209.453125 906.828125 209.371094 888.59375 202.34375 C 865.265625 193.359375 852.304688 170.394531 854.523438 144.578125 C 857.933594 104.839844 897.507812 82.429688 934.421875 97.195312 C 955.78125 105.738281 966.070312 123.410156 967.847656 145.800781 C 968.132812 149.4375 967.648438 153.128906 967.65625 156.804688 C 967.667969 160.332031 966.257812 161.519531 962.460938 161.484375 C 938.136719 161.300781 913.816406 161.390625 889.492188 161.390625 C 887.929688 161.390625 886.367188 161.390625 883.992188 161.390625 Z M 939.183594 139.613281 C 937.160156 125.242188 924.445312 116.996094 909.886719 117.953125 C 896.386719 118.84375 884.019531 128.964844 884.171875 139.613281 Z M 939.183594 139.613281 "/>
<path style=" stroke:none;fill-rule:nonzero;fill:rgb(9.803922%,9.803922%,20.784314%);fill-opacity:1;" d="M 571.921875 120.867188 C 564.210938 125.347656 556.445312 129.851562 548.273438 134.585938 C 542.367188 124.878906 533.550781 120.035156 522.207031 120.179688 C 513.96875 120.28125 506.765625 123.269531 501.011719 129.222656 C 489.871094 140.753906 490.648438 161.582031 502.609375 172.195312 C 515.964844 184.046875 534.609375 181.546875 548.820312 165.738281 C 556.582031 170.074219 564.425781 174.445312 572.234375 178.796875 C 565.246094 194.855469 542.203125 210.542969 512.699219 206.378906 C 486.339844 202.652344 466.171875 179.96875 465.117188 152.335938 C 464.019531 123.328125 482.105469 100.074219 510.480469 94.015625 C 535.085938 88.753906 563.578125 101.066406 571.921875 120.867188 Z M 571.921875 120.867188 "/>
<path style=" stroke:none;fill-rule:nonzero;fill:rgb(9.803922%,9.803922%,20.784314%);fill-opacity:1;" d="M 650.464844 93.648438 L 650.464844 124.070312 C 647.15625 124.367188 643.917969 124.570312 640.699219 124.953125 C 626.566406 126.617188 617.507812 136.222656 617.292969 150.328125 C 617.039062 166.433594 617.195312 182.550781 617.171875 198.65625 C 617.171875 200.308594 617.171875 201.964844 617.171875 203.847656 L 589.152344 203.847656 C 589.082031 202.34375 588.960938 200.980469 588.960938 199.621094 C 588.953125 166.695312 589.007812 133.769531 588.875 100.84375 C 588.859375 97.269531 589.601562 95.769531 593.601562 95.972656 C 600.199219 96.292969 606.832031 96.148438 613.4375 96.007812 C 616.210938 95.945312 617.34375 96.804688 617.222656 99.628906 C 617.039062 103.667969 617.179688 107.714844 617.609375 112.082031 C 624.8125 99.519531 635.945312 94.25 650.464844 93.65625 Z M 650.464844 93.648438 "/>
<path style=" stroke:none;fill-rule:nonzero;fill:rgb(9.803922%,9.803922%,20.784314%);fill-opacity:1;" d="M 695.4375 96.039062 L 695.4375 203.8125 L 667.707031 203.8125 C 667.636719 202.386719 667.515625 201.019531 667.515625 199.664062 C 667.5 166.710938 667.550781 133.75 667.421875 100.796875 C 667.402344 97.167969 668.265625 95.800781 672.195312 95.953125 C 679.789062 96.25 687.40625 96.039062 695.4375 96.039062 Z M 695.4375 96.039062 "/>
<path style=" stroke:none;fill-rule:nonzero;fill:rgb(9.803922%,9.803922%,20.784314%);fill-opacity:1;" d="M 698.859375 66.195312 C 698.773438 75.058594 690.714844 82.585938 681.335938 82.570312 C 671.921875 82.550781 664.207031 74.804688 664.207031 65.371094 C 664.207031 56.25 672.378906 48.394531 681.730469 48.523438 C 691.335938 48.648438 698.964844 56.523438 698.867188 66.195312 Z M 698.859375 66.195312 "/>
</g>
</svg>
