<?xml version="1.0" encoding="UTF-8"?>
<svg xmlns="http://www.w3.org/2000/svg" xmlns:xlink="http://www.w3.org/1999/xlink" width="500px" height="500px" viewBox="0 0 500 500" version="1.1">
<g id="surface1">
<path style=" stroke:none;fill-rule:evenodd;fill:rgb(0%,0%,0%);fill-opacity:1;" d="M 365.140625 1.042969 C 367.871094 1.042969 370.195312 2.796875 371.042969 5.238281 C 373.4375 5.152344 375.859375 5.917969 377.8125 7.53125 L 378.535156 8.1875 L 425.1875 54.839844 L 425.183594 81.039062 L 451.378906 81.023438 L 497.273438 126.921875 C 499.335938 128.984375 500.320312 131.71875 500.226562 134.421875 C 503.070312 134.988281 505.214844 137.511719 505.214844 140.535156 L 505.214844 367.125 C 505.214844 370.058594 503.195312 372.519531 500.46875 373.195312 C 500.453125 375.746094 499.46875 378.296875 497.515625 380.25 L 451.519531 426.234375 L 425.183594 426.226562 L 425.1875 452.566406 L 378.78125 498.984375 C 376.863281 500.898438 374.375 501.886719 371.867188 501.941406 C 371.046875 504.425781 368.699219 506.222656 365.933594 506.222656 L 139.144531 506.222656 C 136.410156 506.222656 134.085938 504.46875 133.238281 502.027344 C 130.886719 502.085938 128.519531 501.316406 126.601562 499.734375 L 125.882812 499.078125 L 80.023438 453.222656 L 80.03125 426.226562 L 53.035156 426.234375 L 7.144531 380.339844 C 5.136719 378.332031 4.148438 375.6875 4.1875 373.050781 C 1.753906 372.203125 0 369.878906 0 367.148438 L 0 140.523438 C 0 137.882812 1.640625 135.625 3.957031 134.707031 C 3.804688 131.949219 4.785156 129.128906 6.902344 127.015625 L 52.835938 81.0625 L 64.488281 81.058594 L 64.488281 81.039062 L 80.023438 81.035156 L 80.023438 53.882812 L 125.636719 8.277344 C 127.511719 6.402344 129.941406 5.421875 132.394531 5.328125 C 133.214844 2.839844 135.5625 1.042969 138.328125 1.042969 Z M 351.113281 49.984375 L 153.148438 49.984375 L 122.101562 81.035156 L 349.4375 81.039062 L 349.4375 129.984375 L 73.144531 129.984375 L 48.945312 154.183594 L 48.945312 352.917969 L 80.023438 383.996094 L 80.03125 158.375 L 128.980469 158.375 L 128.976562 282.492188 L 316.414062 282.492188 L 316.414062 331.441406 L 128.976562 331.441406 L 128.980469 432.511719 L 128.53125 432.503906 L 153.300781 457.273438 L 351.261719 457.273438 L 382.3125 426.222656 L 153.835938 426.226562 L 153.835938 377.277344 L 431.261719 377.273438 L 456.261719 352.273438 L 456.261719 155.140625 L 425.179688 124.058594 L 425.183594 352.421875 L 376.238281 352.421875 L 376.230469 228.296875 L 188.800781 228.300781 L 188.800781 179.351562 L 376.230469 179.347656 L 376.230469 75.105469 Z M 351.113281 49.984375 "/>
</g>
</svg>
