<svg width="80" height="80" xmlns="http://www.w3.org/2000/svg">

 <g>
  <title>Layer 1</title>
  <g id="svg_1" fill-rule="evenodd">
   <path id="svg_2" d="m58.42221,0.16667c0.43723,0 0.80892,0.2806 0.94481,0.67154c0.38298,-0.01411 0.77035,0.10844 1.08329,0.36675l0.11534,0.10485l7.46454,7.46485l-0.00051,4.19134l4.19097,-0.0025l7.34291,7.34422c0.32996,0.33002 0.48745,0.76718 0.47248,1.19948c0.45523,0.09116 0.79851,0.49458 0.79851,0.97818l0,36.25469c0,0.46937 -0.32338,0.86321 -0.75949,0.97089c-0.00232,0.40814 -0.16012,0.81654 -0.47245,1.12893l-7.35932,7.35786l-4.21361,-0.0014l0.00051,4.2145l-7.4255,7.42695c-0.30629,0.30624 -0.70487,0.46391 -1.10619,0.47304c-0.13085,0.39717 -0.50636,0.68485 -0.94907,0.68485l-36.28651,0c-0.43722,0 -0.80891,-0.2806 -0.9448,-0.67155c-0.3762,0.00938 -0.75477,-0.11337 -1.06173,-0.36674l-0.11534,-0.10485l-7.33702,-7.33662l0.00083,-4.31958l-4.31901,0.0014l-7.34271,-7.34312c-0.32152,-0.32158 -0.47929,-0.74489 -0.47329,-1.16631c-0.38925,-0.13572 -0.66985,-0.50741 -0.66985,-0.94463l0,-36.25981c0,-0.42272 0.26229,-0.78418 0.63301,-0.93051c-0.0242,-0.4416 0.1328,-0.89256 0.47108,-1.2309l7.34942,-7.3525l1.86449,-0.0003l0.00029,-0.00367l2.48571,-0.00033l0.00003,-4.3446l7.29798,-7.29652c0.29993,-0.29987 0.68835,-0.4573 1.0812,-0.47227c0.1312,-0.39793 0.50672,-0.68561 0.94942,-0.68561l36.28958,0zm-2.24421,7.831l-31.674,0l-4.968,4.968l36.3741,0.00033l0,7.83172l-44.2071,-0.00005l-3.872,3.872l0,31.797l4.973,4.973l0.00086,-36.09961l7.83172,0l-0.00058,19.85861l29.99048,0.00039l0,7.83173l-29.99048,-0.00012l0.00058,16.17099l-0.07158,-0.00099l3.963,3.963l31.674,0l4.968,-4.968l-36.55602,0.00068l0,-7.83172l44.38802,-0.00096l4,-4l0,-31.541l-4.973,-4.973l0.00068,36.53757l-7.83172,0l-0.00096,-19.85957l-29.98893,0.00056l0,-7.83172l29.98893,-0.00084l0,-16.679l-4.019,-4.019z"/>
   <path id="svg_3" fill-rule="nonzero" d="m126.69035,66.81337c5.28121,0 9.5766,-1.33791 12.88617,-4.01373s4.99955,-6.26704 4.99955,-10.8441c0,-2.81665 -0.77458,-5.28122 -1.83082,-6.97121c-0.91542,-1.68999 -3.16873,-3.45039 -4.64748,-4.3658c-0.70416,-0.49292 -1.7604,-0.98583 -3.09831,-1.47874c-1.33791,-0.56333 -2.39415,-0.98583 -3.16873,-1.19708l-3.37998,-1.12666c-3.66164,-1.12666 -6.12621,-2.1829 -7.46412,-3.09831c-1.26749,-0.98583 -1.90124,-2.25332 -1.90124,-3.80248c0,-2.88707 2.46457,-4.92914 6.4783,-4.92914c4.29539,0 7.46412,2.11249 9.43577,6.33746l8.16828,-4.71788c-3.37997,-6.97121 -9.64702,-11.05535 -17.60405,-11.05535c-4.43623,0 -8.30912,1.33791 -11.47785,4.01372c-3.16873,2.6054 -4.71789,6.19663 -4.71789,10.63286c0,4.50663 1.61958,7.88661 4.64747,10.13993c3.09832,2.18291 5.77413,3.23915 10.21036,4.57706c4.01372,1.12666 6.75996,2.1829 8.30911,3.16873c1.54916,0.91541 2.32374,2.25332 2.32374,4.01372c0,3.0279 -2.46457,5.2108 -7.88662,5.2108c-5.6333,0 -9.43578,-2.53498 -11.33701,-7.53453l-8.30912,4.85872c2.74623,7.53453 9.57661,12.18201 19.36447,12.18201zm40.55975,0c6.83037,0 12.81575,-3.59123 15.91406,-9.15411l-7.88661,-4.50664c-1.40833,2.88706 -4.43623,4.64747 -8.09787,4.64747c-2.74623,0 -4.99955,-0.91541 -6.75996,-2.67582c-1.7604,-1.83082 -2.67582,-4.15456 -2.67582,-6.90079c0,-5.6333 4.01373,-9.64702 9.43578,-9.64702c3.59123,0 6.61913,1.83082 8.02745,4.71788l7.8162,-4.57705c-2.88706,-5.56288 -8.94286,-9.08369 -15.77323,-9.08369c-5.28122,0 -9.71744,1.7604 -13.30867,5.35163c-3.52081,3.59123 -5.28122,7.95703 -5.28122,13.23825s1.76041,9.64702 5.28122,13.23825c3.59123,3.59123 8.02745,5.35164 13.30867,5.35164zm30.06773,-0.98583l0,-16.82948c0,-3.37998 1.05624,-5.77413 3.23914,-7.25287s4.71789,-2.04207 7.46412,-1.68999l0,-10.13994c-4.7883,0 -9.01327,2.25332 -10.70326,6.75996l0,-6.0558l-9.0837,0l0,35.20812l9.0837,0zm20.49112,-39.43309c3.09831,0 5.6333,-2.53499 5.6333,-5.56288s-2.53499,-5.6333 -5.6333,-5.6333c-3.0279,0 -5.56288,2.6054 -5.56288,5.6333s2.53498,5.56288 5.56288,5.56288zm4.57706,39.43309l0,-35.20812l-9.0837,0l0,35.20812l9.0837,0zm28.80023,0.98583c4.71789,0 8.80203,-1.76041 12.1116,-5.35164c3.37998,-3.59123 5.06996,-8.02745 5.06996,-13.23825c0,-5.2108 -1.68998,-9.57661 -5.06996,-13.16783c-3.30957,-3.59123 -7.39371,-5.42205 -12.1116,-5.42205c-4.92913,0 -8.73161,1.68998 -11.40743,5.14038l0,-18.2378l-9.08369,0l0,49.29136l9.08369,0l0,-4.15456c2.67582,3.4504 6.4783,5.14039 11.40743,5.14039zm-1.68999,-8.6612c-2.81664,0 -5.14038,-0.91541 -6.9712,-2.74623c-1.83082,-1.90124 -2.74624,-4.29539 -2.74624,-7.18246c0,-2.88706 0.91542,-5.28122 2.74624,-7.11204c1.83082,-1.90124 4.15456,-2.81665 6.9712,-2.81665s5.14039,0.91541 6.97121,2.81665c1.90124,1.83082 2.81665,4.22498 2.81665,7.11204c0,2.88707 -0.91541,5.28122 -2.81665,7.18246c-1.83082,1.83082 -4.15456,2.74623 -6.97121,2.74623zm42.74266,8.6612c6.75996,0 11.90034,-2.53499 15.35074,-7.53454l-7.32329,-4.22497c-1.76041,2.32373 -4.43622,3.52081 -7.88662,3.52081c-5.42205,0 -8.73161,-2.18291 -9.92869,-6.61913l26.54692,0c0.21125,-1.33791 0.35208,-2.53498 0.35208,-3.73206c0,-5.28122 -1.68999,-9.64702 -5.06997,-13.23825c-3.30956,-3.59123 -7.60495,-5.35163 -12.74534,-5.35163c-5.42205,0 -9.92868,1.7604 -13.37908,5.35163c-3.4504,3.52081 -5.2108,7.95703 -5.2108,13.23825c0,5.35163 1.7604,9.78786 5.28122,13.30867c3.52081,3.52081 8.16828,5.28122 14.01283,5.28122zm8.02745,-21.89945l-17.95614,0c1.05624,-4.50664 4.36581,-7.11204 9.22453,-7.11204c4.15455,0 7.67536,2.32373 8.73161,7.11204zm34.22229,21.89945c5.56288,0 10.06952,-1.54916 13.59033,-4.64748s5.28122,-7.25287 5.28122,-12.46367l0,-33.16604l-9.71744,0l0,32.39146c0,5.14039 -2.88707,8.37953 -9.15411,8.37953c-6.26705,0 -9.15411,-3.23914 -9.15411,-8.37953l0,-32.39146l-9.64703,0l0,33.16604c0,5.2108 1.76041,9.36536 5.28122,12.46367c3.52081,3.09832 8.02745,4.64748 13.51992,4.64748zm36.26436,13.09741l0,-18.2378c2.67581,3.4504 6.47829,5.14039 11.40743,5.14039c4.71788,0 8.80202,-1.76041 12.11159,-5.35164c3.37998,-3.59123 5.06997,-8.02745 5.06997,-13.23825c0,-5.2108 -1.68999,-9.57661 -5.06997,-13.16783c-3.30957,-3.59123 -7.39371,-5.42205 -12.11159,-5.42205c-4.92914,0 -8.73162,1.68998 -11.40743,5.14038l0,-4.15456l-9.0837,0l0,49.29136l9.0837,0zm9.71744,-21.75861c-2.81665,0 -5.14039,-0.91541 -6.97121,-2.74623c-1.83082,-1.90124 -2.74623,-4.29539 -2.74623,-7.18246c0,-2.88706 0.91541,-5.28122 2.74623,-7.11204c1.83082,-1.90124 4.15456,-2.81665 6.97121,-2.81665c2.81665,0 5.14038,0.91541 6.9712,2.81665c1.90124,1.83082 2.81665,4.22498 2.81665,7.11204c0,2.88707 -0.91541,5.28122 -2.81665,7.18246c-1.83082,1.83082 -4.15455,2.74623 -6.9712,2.74623z"/>
  </g>
 </g>
</svg>