<?xml version="1.0" encoding="UTF-8"?>
<svg xmlns="http://www.w3.org/2000/svg" xmlns:xlink="http://www.w3.org/1999/xlink" width="500px" height="500px" viewBox="0 0 500 500" version="1.1">
<defs>
<linearGradient id="linear0" gradientUnits="userSpaceOnUse" x1="0.13575" y1="0.86033" x2="0.87247" y2="0.13494" gradientTransform="matrix(488.722656,0,0,488.679688,-0.0117188,0)">
<stop offset="0" style="stop-color:rgb(56.078431%,63.921569%,100%);stop-opacity:1;"/>
<stop offset="1" style="stop-color:rgb(63.921569%,100%,80.392157%);stop-opacity:1;"/>
</linearGradient>
</defs>
<g id="surface1">
<path style=" stroke:none;fill-rule:nonzero;fill:url(#linear0);" d="M 349.261719 0 C 352.628906 0 355.609375 1.671875 357.421875 4.230469 C 360.101562 3.710938 362.96875 4.328125 365.25 6.101562 L 366.171875 6.910156 L 411.300781 52.039062 L 411.300781 77.378906 L 436.628906 77.371094 L 481.03125 121.769531 C 483.339844 124.078125 484.25 127.269531 483.761719 130.269531 C 486.71875 131.988281 488.710938 135.210938 488.710938 138.890625 L 488.710938 350.171875 C 488.710938 353.738281 486.839844 356.871094 484.019531 358.640625 C 484.421875 361.539062 483.488281 364.589844 481.261719 366.820312 L 436.769531 411.300781 L 411.300781 411.300781 L 411.300781 436.78125 L 366.398438 481.679688 C 364.160156 483.921875 361.101562 484.839844 358.191406 484.449219 C 356.390625 487.011719 353.398438 488.679688 350.03125 488.679688 L 138.550781 488.679688 C 135.191406 488.679688 132.21875 487.019531 130.410156 484.480469 C 127.75 484.949219 124.929688 484.320312 122.691406 482.578125 L 121.769531 481.769531 L 77.398438 437.398438 L 77.398438 411.300781 L 51.300781 411.300781 L 6.898438 366.898438 C 4.570312 364.570312 3.660156 361.351562 4.179688 358.320312 C 1.640625 356.519531 -0.0117188 353.550781 -0.0117188 350.191406 L -0.0117188 138.878906 C -0.0117188 135.578125 1.589844 132.671875 4.039062 130.839844 C 3.339844 127.710938 4.21875 124.300781 6.671875 121.859375 L 51.101562 77.398438 L 62.371094 77.390625 L 62.371094 77.371094 L 77.398438 77.371094 L 77.398438 51.109375 L 121.53125 7 C 123.738281 4.800781 126.738281 3.859375 129.621094 4.199219 C 131.421875 1.671875 134.398438 0 137.761719 0 Z M 339.628906 47.339844 L 148.148438 47.339844 L 118.109375 77.378906 L 338.019531 77.378906 L 338.019531 124.730469 L 70.761719 124.730469 L 47.339844 148.148438 L 47.339844 340.371094 L 77.410156 370.441406 L 77.410156 152.191406 L 124.769531 152.191406 L 124.761719 272.25 L 306.078125 272.25 L 306.078125 319.609375 L 124.761719 319.601562 L 124.761719 417.371094 L 124.339844 417.371094 L 148.289062 441.320312 L 339.789062 441.320312 L 369.820312 411.289062 L 148.820312 411.289062 L 148.820312 363.949219 L 417.171875 363.941406 L 441.359375 339.75 L 441.359375 149.070312 L 411.289062 119 L 411.289062 339.898438 L 363.949219 339.898438 L 363.941406 219.828125 L 182.640625 219.828125 L 182.640625 172.5 L 363.941406 172.488281 L 363.941406 71.648438 Z M 339.628906 47.339844 "/>
</g>
</svg>
