<svg xmlns="http://www.w3.org/2000/svg" width="50" height="50" viewBox="0 0 50 50">
  <defs>
    <linearGradient id="scribeup-favicon-gradient" x1="13.575%" x2="87.247%" y1="86.033%" y2="13.494%">
      <stop offset="0%" stop-color="#8FA3FF" />
      <stop offset="100%" stop-color="#A3FFCD" />
    </linearGradient>
  </defs>
  <path
    fill="url(#scribeup-favicon-gradient)"
    d="M34.926 0c.337 0 .635.167.816.423.268-.052.555.01.783.187l.092.081 4.513 4.513v2.534l2.533-.001 4.44 4.44c.231.231.322.55.273.85.296.172.495.494.495.862v21.128c0 .357-.187.67-.469.847.04.29-.053.595-.276.818l-4.449 4.448H41.13v2.548l-4.49 4.49c-.224.224-.53.316-.821.277-.18.256-.479.423-.816.423H13.855c-.336 0-.633-.166-.814-.42-.266.047-.548-.016-.772-.19l-.092-.081L7.74 43.74V41.13h-2.61L.69 36.69c-.233-.233-.324-.555-.272-.858-.254-.18-.419-.477-.419-.813V13.888c0-.33.16-.621.405-.804-.07-.313.018-.654.263-.898L5.11 7.74l1.127-.001v-.002h1.503V5.111L12.153.7c.221-.22.521-.314.809-.28.18-.253.478-.42.814-.42h21.15zm-.963 4.734H14.815l-3.004 3.004h21.991v4.735H7.076l-2.342 2.342v19.222l3.007 3.007V15.219h4.736l-.001 12.006h18.132v4.736l-18.132-.001v9.777h-.042l2.395 2.395h19.15l3.003-3.003h-22.1v-4.734l26.835-.001 2.419-2.419V14.907L41.129 11.9v22.09h-4.734l-.001-12.007h-18.13V17.25l18.13-.001V7.165l-2.431-2.431z"
  />
</svg>


